<?xml version="1.0" encoding="UTF-8"?>
<svg width="166px" height="36px" viewBox="0 0 166 36" version="1.1" xmlns="http://www.w3.org/2000/svg" xmlns:xlink="http://www.w3.org/1999/xlink">
    <!-- Generator: Sketch 52.6 (67491) - http://www.bohemiancoding.com/sketch -->
    <title>Group</title>
    <desc>Created with Sketch.</desc>
    <g id="Page-1" stroke="none" stroke-width="1" fill="none" fill-rule="evenodd">
        <g id="1440-Landingpage-Copy-3" transform="translate(-637.000000, -130.000000)" fill="#FFFFFF">
            <g id="Group" transform="translate(637.000000, 130.000000)">
                <path d="M15.06801,11.5771897 C15.06801,13.8413572 13.27461,15.5450872 9.7998975,15.5450872 L0.98982,15.5450872 L0.98982,0.615032235 L9.553305,0.615032235 C13.2073575,0.615032235 14.485155,2.20667473 14.485155,4.08974473 C14.485155,6.12973723 12.91593,7.49720473 9.8447325,7.92313723 L9.911985,7.92313723 C13.0056,7.92313723 15.06801,9.44752723 15.06801,11.5771897 Z M9.68781,5.27787223 C9.68781,4.33633723 9.015285,3.75348223 7.7823225,3.75348223 L5.787165,3.75348223 L5.787165,6.82467973 L7.7823225,6.82467973 C9.14979,6.82467973 9.68781,6.04006723 9.68781,5.27787223 Z M10.270665,10.6580722 C10.270665,9.69411973 9.4860525,9.06642973 8.0961675,9.06642973 L5.787165,9.06642973 L5.787165,12.4066372 L8.0513325,12.4066372 C9.6205575,12.4066372 10.270665,11.6668597 10.270665,10.6580722 Z M26.9912733,10.9270822 L20.9833833,10.9270822 C21.0058008,12.2272972 21.4989858,13.2585022 22.5750258,13.2585022 C23.3148033,13.2585022 23.5613958,12.8101522 23.5613958,12.2497147 C23.5613958,12.1152097 23.5389783,11.9582872 23.5165608,11.8237822 L27.0361083,12.1600447 C27.0585258,12.3618022 27.0809433,12.5859772 27.0809433,12.7653172 C27.0809433,14.9398147 25.0185333,15.7692622 22.1266758,15.7692622 C17.9346033,15.7692622 16.3205433,13.4602597 16.3205433,10.3218097 C16.3205433,7.40753473 18.3157008,4.87435723 22.1939283,4.87435723 C25.4220483,4.87435723 27.1706133,6.62292223 27.1706133,9.33543973 C27.1706133,9.76137223 27.0809433,10.4338972 26.9912733,10.9270822 Z M22.3956858,7.51962223 C21.4765683,7.51962223 21.0506358,8.50599223 20.9833833,9.44752723 L23.2699683,9.44752723 C23.3148033,9.17851723 23.3372208,8.93192473 23.3372208,8.70774973 C23.3372208,7.99038973 23.0682108,7.51962223 22.3956858,7.51962223 Z M33.8705992,15.5450872 L29.2525942,15.5450872 L29.2525942,0.615032235 L33.8705992,0.615032235 L33.8705992,15.5450872 Z M41.3103625,4.04490973 L36.6923575,4.04490973 L36.6923575,0.615032235 L41.3103625,0.615032235 L41.3103625,4.04490973 Z M41.3103625,15.5450872 L36.6923575,15.5450872 L36.6923575,5.09853223 L41.3103625,5.09853223 L41.3103625,15.5450872 Z M55.9461434,15.5450872 L51.3281384,15.5450872 L51.3281384,9.49236223 C51.3281384,8.79741973 51.0367109,8.37148723 50.3641859,8.37148723 C49.1760584,8.37148723 48.7501259,9.96312973 48.7501259,12.4066372 L48.7501259,15.5450872 L44.1321209,15.5450872 L44.1321209,5.09853223 L47.4050759,5.09853223 L48.3017759,8.73016723 C48.8622134,6.19698973 50.0727584,4.87435723 52.1800034,4.87435723 C54.7355984,4.87435723 55.9461434,6.66775723 55.9461434,9.78378973 L55.9461434,15.5450872 Z M63.9687617,4.89677473 C64.9102967,4.89677473 65.7621617,5.00886223 66.4795217,5.23303723 C66.5691917,5.03127973 66.6140267,4.89677473 66.6140267,4.71743473 C66.6140267,4.22424973 66.3225992,4.00007473 65.7845792,4.00007473 L65.5828217,4.00007473 L66.1432592,2.52051973 C66.4571042,2.45326723 66.7485317,2.43084973 66.9951242,2.43084973 C68.2280867,2.43084973 68.7661067,3.08095723 68.7661067,3.91040473 C68.7661067,4.65018223 68.2953392,5.27787223 67.5331442,5.65896973 C68.5643492,6.04006723 69.3489617,7.07127223 69.3489617,8.39390473 C69.3489617,10.3666447 67.5331442,11.8686172 63.9687617,11.8686172 C63.0496442,11.8686172 62.2426142,11.7789472 61.5476717,11.5771897 C61.3459142,11.7116947 61.1889917,11.8910347 61.1889917,12.1376272 C61.1889917,12.5859772 61.6597592,12.6980647 62.1977792,12.6980647 L64.9551317,12.6980647 C68.5643492,12.6980647 70.3577492,13.5947647 70.3577492,15.9710197 C70.3577492,18.3921097 67.7797367,19.4457322 63.7221692,19.4457322 C60.1802042,19.4457322 57.4228517,18.7732072 57.4228517,17.2488172 C57.4228517,16.1055247 58.7903192,15.5226697 60.7630592,15.4778347 C59.1489992,15.2536597 58.0505417,14.6932222 58.0505417,13.3930072 C58.0505417,12.2272972 59.4180092,11.5099372 60.6509717,11.2633447 C59.3283392,10.6356547 58.6109792,9.64928473 58.6109792,8.39390473 C58.6109792,6.19698973 60.5837192,4.89677473 63.9687617,4.89677473 Z M64.8878792,15.6123397 L63.0272267,15.6123397 C61.9960217,15.6123397 61.5028367,15.9261847 61.5028367,16.5090397 C61.5028367,17.1143122 62.2201967,17.4729922 63.8790917,17.4729922 C65.5828217,17.4729922 66.3225992,17.0694772 66.3225992,16.4642047 C66.3225992,15.9037672 65.8518317,15.6123397 64.8878792,15.6123397 Z M65.2465592,8.39390473 C65.2465592,7.56445723 64.8654617,6.82467973 63.9911792,6.82467973 C63.1168967,6.82467973 62.7133817,7.63170973 62.7133817,8.39390473 C62.7133817,9.15609973 63.1168967,9.94071223 63.9687617,9.94071223 C64.8206267,9.94071223 65.2465592,9.22335223 65.2465592,8.39390473 Z M85.1504526,4.11216223 L80.4203601,4.11216223 L80.4203601,15.5450872 L75.6230151,15.5450872 L75.6230151,4.11216223 L70.8929226,4.11216223 L70.8929226,0.615032235 L85.1504526,0.615032235 L85.1504526,4.11216223 Z M98.7326109,15.5450872 L94.1146059,15.5450872 L94.1146059,9.49236223 C94.1146059,8.79741973 93.8231784,8.37148723 93.1506534,8.37148723 C91.9625259,8.37148723 91.5365934,9.96312973 91.5365934,12.4066372 L91.5365934,15.5450872 L86.9185884,15.5450872 L86.9185884,0.615032235 L91.5365934,0.615032235 L91.5365934,8.14731223 C92.0297784,6.08490223 93.3075759,4.87435723 94.8992184,4.87435723 C97.5220659,4.87435723 98.7326109,6.66775723 98.7326109,9.78378973 L98.7326109,15.5450872 Z M112.942459,10.3218097 C112.942459,13.6395997 110.409282,15.7692622 106.800064,15.7692622 C103.213264,15.7692622 100.657669,13.6395997 100.657669,10.3218097 C100.657669,7.00401973 103.213264,4.87435723 106.800064,4.87435723 C110.409282,4.87435723 112.942459,7.00401973 112.942459,10.3218097 Z M108.324454,10.3218097 C108.324454,8.32665223 107.696764,7.60929223 106.800064,7.60929223 C105.903364,7.60929223 105.275674,8.32665223 105.275674,10.3218097 C105.275674,12.3169672 105.903364,13.0343272 106.800064,13.0343272 C107.696764,13.0343272 108.324454,12.3169672 108.324454,10.3218097 Z M124.97781,10.9270822 L118.96992,10.9270822 C118.992338,12.2272972 119.485523,13.2585022 120.561563,13.2585022 C121.30134,13.2585022 121.547933,12.8101522 121.547933,12.2497147 C121.547933,12.1152097 121.525515,11.9582872 121.503098,11.8237822 L125.022645,12.1600447 C125.045063,12.3618022 125.06748,12.5859772 125.06748,12.7653172 C125.06748,14.9398147 123.00507,15.7692622 120.113213,15.7692622 C115.92114,15.7692622 114.30708,13.4602597 114.30708,10.3218097 C114.30708,7.40753473 116.302238,4.87435723 120.180465,4.87435723 C123.408585,4.87435723 125.15715,6.62292223 125.15715,9.33543973 C125.15715,9.76137223 125.06748,10.4338972 124.97781,10.9270822 Z M120.382223,7.51962223 C119.463105,7.51962223 119.037173,8.50599223 118.96992,9.44752723 L121.256505,9.44752723 C121.30134,9.17851723 121.323758,8.93192473 121.323758,8.70774973 C121.323758,7.99038973 121.054748,7.51962223 120.382223,7.51962223 Z M139.053153,15.5450872 L134.435148,15.5450872 L134.435148,9.49236223 C134.435148,8.79741973 134.143721,8.37148723 133.471196,8.37148723 C132.283068,8.37148723 131.857136,9.96312973 131.857136,12.4066372 L131.857136,15.5450872 L127.239131,15.5450872 L127.239131,5.09853223 L130.512086,5.09853223 L131.408786,8.73016723 C131.969223,6.19698973 133.179768,4.87435723 135.287013,4.87435723 C137.842608,4.87435723 139.053153,6.66775723 139.053153,9.78378973 L139.053153,15.5450872 Z M151.648942,10.9270822 L145.641052,10.9270822 C145.663469,12.2272972 146.156654,13.2585022 147.232694,13.2585022 C147.972472,13.2585022 148.219064,12.8101522 148.219064,12.2497147 C148.219064,12.1152097 148.196647,11.9582872 148.174229,11.8237822 L151.693777,12.1600447 C151.716194,12.3618022 151.738612,12.5859772 151.738612,12.7653172 C151.738612,14.9398147 149.676202,15.7692622 146.784344,15.7692622 C142.592272,15.7692622 140.978212,13.4602597 140.978212,10.3218097 C140.978212,7.40753473 142.973369,4.87435723 146.851597,4.87435723 C150.079717,4.87435723 151.828282,6.62292223 151.828282,9.33543973 C151.828282,9.76137223 151.738612,10.4338972 151.648942,10.9270822 Z M147.053354,7.51962223 C146.134237,7.51962223 145.708304,8.50599223 145.641052,9.44752723 L147.927637,9.44752723 C147.972472,9.17851723 147.994889,8.93192473 147.994889,8.70774973 C147.994889,7.99038973 147.725879,7.51962223 147.053354,7.51962223 Z M165.724285,15.5450872 L161.10628,15.5450872 L161.10628,9.49236223 C161.10628,8.79741973 160.814853,8.37148723 160.142328,8.37148723 C158.9542,8.37148723 158.528268,9.96312973 158.528268,12.4066372 L158.528268,15.5450872 L153.910263,15.5450872 L153.910263,5.09853223 L157.183218,5.09853223 L158.079918,8.73016723 C158.640355,6.19698973 159.8509,4.87435723 161.958145,4.87435723 C164.51374,4.87435723 165.724285,6.66775723 165.724285,9.78378973 L165.724285,15.5450872 Z" id="BelingThoenen"></path>
                <path d="M23.5343831,31.0647158 C23.2799494,31.7541493 22.861371,32.293787 22.2786356,32.6836452 C21.6959002,33.0735034 21.0228919,33.2684296 20.2595906,33.2684296 C19.4962893,33.2684296 18.8314885,33.0981257 18.2651681,32.7575127 C17.6988478,32.4168998 17.2618028,31.9326621 16.95402,31.3047852 C16.6462372,30.6769083 16.4923481,29.9361889 16.4923481,29.0826046 C16.4923481,28.2372279 16.6462372,27.4985603 16.95402,26.8665796 C17.2618028,26.2345989 17.6988478,25.7483094 18.2651681,25.4076965 C18.8314885,25.0670835 19.4880819,24.8967796 20.2349681,24.8967796 C21.0146845,24.8967796 21.6692261,25.0568242 22.1986125,25.3769183 C22.7279989,25.6970124 23.1240068,26.168939 23.3866481,26.7927121 L22.4140594,27.2482283 C22.2334935,26.772191 21.9708561,26.4151683 21.6261394,26.1771496 C21.2814227,25.9391309 20.8423258,25.8201233 20.3088356,25.8201233 C19.7507228,25.8201233 19.2623815,25.9493902 18.8437969,26.2079277 C18.4252123,26.4664653 18.1010193,26.8419546 17.8712081,27.3344071 C17.641397,27.8268596 17.5264931,28.4095862 17.5264931,29.0826046 C17.5264931,30.1003397 17.7706638,30.8985111 18.2590125,31.4771427 C18.7473612,32.0557744 19.4142139,32.3450858 20.2595906,32.3450858 C20.8094959,32.3450858 21.2855261,32.2055597 21.6876956,31.9265033 C22.0898651,31.647447 22.3771248,31.2370761 22.5494831,30.6953783 L23.5343831,31.0647158 Z M27.8433206,26.8665796 C28.7707728,26.8665796 29.4991811,27.1497355 30.0285675,27.7160558 C30.5579539,28.2823762 30.8226431,29.0661846 30.8226431,30.0675046 C30.8226431,31.0688246 30.5579539,31.852633 30.0285675,32.4189533 C29.4991811,32.9852737 28.7707728,33.2684296 27.8433206,33.2684296 C26.9158685,33.2684296 26.1874601,32.9852737 25.6580737,32.4189533 C25.1286874,31.852633 24.8639981,31.0688246 24.8639981,30.0675046 C24.8639981,29.0661846 25.1286874,28.2823762 25.6580737,27.7160558 C26.1874601,27.1497355 26.9158685,26.8665796 27.8433206,26.8665796 Z M27.8433206,27.7160558 C27.2195475,27.7160558 26.7312061,27.925345 26.3782819,28.3439296 C26.0253576,28.7625142 25.8488981,29.3370334 25.8488981,30.0675046 C25.8488981,30.7979757 26.0253576,31.372495 26.3782819,31.7910796 C26.7312061,32.2096642 27.2195475,32.4189533 27.8433206,32.4189533 C28.4670937,32.4189533 28.9554351,32.2096642 29.3083594,31.7910796 C29.6612836,31.372495 29.8377431,30.7979757 29.8377431,30.0675046 C29.8377431,29.3370334 29.6612836,28.7625142 29.3083594,28.3439296 C28.9554351,27.925345 28.4670937,27.7160558 27.8433206,27.7160558 Z M35.7225206,26.8665796 C36.4201616,26.8665796 36.9946809,27.0676613 37.4460956,27.4698308 C37.8975104,27.8720004 38.1232144,28.4506233 38.1232144,29.2057171 L38.1232144,33.1453171 L37.1383144,33.1453171 L37.1383144,29.5504321 C37.1383144,28.9102439 37.0008401,28.4465248 36.7258875,28.1592608 C36.4509349,27.8719969 36.0836529,27.7283671 35.6240306,27.7283671 C35.295729,27.7283671 34.9879508,27.800182 34.7006869,27.943814 C34.4134229,28.0874459 34.1774597,28.3213573 33.99279,28.6455552 C33.8081203,28.9697531 33.7157869,29.3780721 33.7157869,29.8705246 L33.7157869,33.1453171 L32.7308869,33.1453171 L32.7308869,26.9896921 L33.5926744,26.9896921 L33.6542306,27.9499696 C33.8594192,27.5806302 34.1425751,27.3077336 34.5037069,27.1312715 C34.8648387,26.9548093 35.2711059,26.8665796 35.7225206,26.8665796 Z M44.1187931,32.7144233 C43.7084161,33.0837627 43.1790376,33.2684296 42.5306419,33.2684296 C42.0299819,33.2684296 41.6216628,33.1330072 41.3056725,32.8621583 C40.9896822,32.5913095 40.8275857,32.1768349 40.8193781,31.6187221 L40.8193781,27.8391683 L39.5882531,27.8391683 L39.5882531,26.9896921 L40.8193781,26.9896921 L40.8193781,25.5123421 L41.8042781,25.2414946 L41.8042781,26.9896921 L44.0818594,26.9896921 L44.0818594,27.8391683 L41.8042781,27.8391683 L41.8042781,31.4463646 C41.8042781,31.7418361 41.8884042,31.9654882 42.0566587,32.1173277 C42.2249133,32.2691672 42.4485655,32.3450858 42.7276219,32.3450858 C43.1215838,32.3450858 43.4703991,32.1932486 43.7740781,31.8895696 L44.1187931,32.7144233 Z M50.7914906,29.7474121 C50.7914906,29.9772232 50.7750758,30.2070309 50.7422456,30.4368421 L46.1009044,30.4368421 C46.1583572,31.0606152 46.3655945,31.5448529 46.7226225,31.8895696 C47.0796505,32.2342863 47.5413178,32.4066421 48.1076381,32.4066421 C48.5590529,32.4066421 48.9345423,32.3286716 49.2341175,32.1727283 C49.5336927,32.0167851 49.7368263,31.7910811 49.8435244,31.4956096 L50.6683781,31.9265033 C50.4221519,32.361503 50.0938552,32.6939034 49.6834781,32.9237146 C49.2731011,33.1535257 48.7478263,33.2684296 48.1076381,33.2684296 C47.180186,33.2684296 46.4517776,32.9852737 45.9223912,32.4189533 C45.3930049,31.852633 45.1283156,31.0688246 45.1283156,30.0675046 C45.1283156,29.0661846 45.3806937,28.2823762 45.8854575,27.7160558 C46.3902213,27.1497355 47.1063185,26.8665796 48.0337706,26.8665796 C48.6082985,26.8665796 49.1048473,26.9937946 49.5234319,27.2482283 C49.9420165,27.5026621 50.2580021,27.8473737 50.4713981,28.2823733 C50.6847942,28.717373 50.7914906,29.2057144 50.7914906,29.7474121 Z M48.0337706,27.7283671 C47.4920729,27.7283671 47.0550279,27.8884117 46.7226225,28.2085058 C46.3902171,28.5285999 46.1870835,28.9800079 46.1132156,29.5627433 L49.8435244,29.5627433 C49.777864,28.9882155 49.5890934,28.5388593 49.2772069,28.2146615 C48.9653203,27.8904636 48.5508457,27.7283671 48.0337706,27.7283671 Z M55.6544344,26.8665796 C56.3520754,26.8665796 56.9265946,27.0676613 57.3780094,27.4698308 C57.8294241,27.8720004 58.0551281,28.4506233 58.0551281,29.2057171 L58.0551281,33.1453171 L57.0702281,33.1453171 L57.0702281,29.5504321 C57.0702281,28.9102439 56.9327539,28.4465248 56.6578012,28.1592608 C56.3828486,27.8719969 56.0155667,27.7283671 55.5559444,27.7283671 C55.2276427,27.7283671 54.9198646,27.800182 54.6326006,27.943814 C54.3453367,28.0874459 54.1093734,28.3213573 53.9247037,28.6455552 C53.7400341,28.9697531 53.6477006,29.3780721 53.6477006,29.8705246 L53.6477006,33.1453171 L52.6628006,33.1453171 L52.6628006,26.9896921 L53.5245881,26.9896921 L53.5861444,27.9499696 C53.7913329,27.5806302 54.0744888,27.3077336 54.4356206,27.1312715 C54.7967524,26.9548093 55.2030196,26.8665796 55.6544344,26.8665796 Z M64.0507069,32.7144233 C63.6403298,33.0837627 63.1109514,33.2684296 62.4625556,33.2684296 C61.9618956,33.2684296 61.5535766,33.1330072 61.2375862,32.8621583 C60.9215959,32.5913095 60.7594994,32.1768349 60.7512919,31.6187221 L60.7512919,27.8391683 L59.5201669,27.8391683 L59.5201669,26.9896921 L60.7512919,26.9896921 L60.7512919,25.5123421 L61.7361919,25.2414946 L61.7361919,26.9896921 L64.0137731,26.9896921 L64.0137731,27.8391683 L61.7361919,27.8391683 L61.7361919,31.4463646 C61.7361919,31.7418361 61.8203179,31.9654882 61.9885725,32.1173277 C62.1568271,32.2691672 62.3804792,32.3450858 62.6595356,32.3450858 C63.0534976,32.3450858 63.4023129,32.1932486 63.7059919,31.8895696 L64.0507069,32.7144233 Z M72.4469794,25.0198921 C73.7273558,25.0198921 74.7286608,25.3728111 75.4509244,26.0786596 C76.173188,26.7845081 76.5343144,27.7858131 76.5343144,29.0826046 C76.5343144,30.3793961 76.173188,31.3807011 75.4509244,32.0865496 C74.7286608,32.7923981 73.7273558,33.1453171 72.4469794,33.1453171 L69.8246831,33.1453171 L69.8246831,25.0198921 L72.4469794,25.0198921 Z M72.5454694,32.2219733 C73.4729215,32.2219733 74.1972261,31.944973 74.718405,31.390964 C75.2395839,30.836955 75.5001694,30.0675095 75.5001694,29.0826046 C75.5001694,28.0976997 75.2395839,27.3282542 74.718405,26.7742452 C74.1972261,26.2202362 73.4729215,25.9432358 72.5454694,25.9432358 L70.8095831,25.9432358 L70.8095831,32.2219733 L72.5454694,32.2219733 Z M81.4218806,26.8665796 C81.7173521,26.8665796 81.9430561,26.9076167 82.0989994,26.9896921 L81.9020194,27.9499696 C81.7050384,27.8432716 81.4465047,27.7899233 81.1264106,27.7899233 C80.8637693,27.7899233 80.6072875,27.865842 80.3569575,28.0176815 C80.1066275,28.169521 79.9014421,28.3993287 79.741395,28.7071115 C79.5813479,29.0148943 79.5013256,29.3862799 79.5013256,29.8212796 L79.5013256,33.1453171 L78.5164256,33.1453171 L78.5164256,26.9896921 L79.3166569,26.9896921 L79.4520806,27.9992146 C79.7967973,27.2441208 80.4533908,26.8665796 81.4218806,26.8665796 Z M84.0318656,25.8078121 C83.810262,25.8078121 83.6317507,25.7401009 83.4963262,25.6046765 C83.3609018,25.469252 83.2931906,25.2907407 83.2931906,25.0691371 C83.2931906,24.8475335 83.3609018,24.6690221 83.4963262,24.5335977 C83.6317507,24.3981733 83.810262,24.3304621 84.0318656,24.3304621 C84.2534692,24.3304621 84.4319806,24.3981733 84.567405,24.5335977 C84.7028294,24.6690221 84.7705406,24.8475335 84.7705406,25.0691371 C84.7705406,25.2907407 84.7028294,25.469252 84.567405,25.6046765 C84.4319806,25.7401009 84.2534692,25.8078121 84.0318656,25.8078121 Z M84.5243156,33.1453171 L83.5394156,33.1453171 L83.5394156,26.9896921 L84.5243156,26.9896921 L84.5243156,33.1453171 Z M91.9233769,26.9896921 L89.3626369,33.1453171 L88.3777369,33.1453171 L85.8169969,26.9896921 L86.9373206,26.9896921 L88.8824981,32.1481058 L90.8892319,26.9896921 L91.9233769,26.9896921 Z M98.4975844,29.7474121 C98.4975844,29.9772232 98.4811695,30.2070309 98.4483394,30.4368421 L93.8069981,30.4368421 C93.8644509,31.0606152 94.0716882,31.5448529 94.4287162,31.8895696 C94.7857443,32.2342863 95.2474115,32.4066421 95.8137319,32.4066421 C96.2651466,32.4066421 96.640636,32.3286716 96.9402112,32.1727283 C97.2397865,32.0167851 97.4429201,31.7910811 97.5496181,31.4956096 L98.3744719,31.9265033 C98.1282456,32.361503 97.7999489,32.6939034 97.3895719,32.9237146 C96.9791948,33.1535257 96.4539201,33.2684296 95.8137319,33.2684296 C94.8862797,33.2684296 94.1578714,32.9852737 93.628485,32.4189533 C93.0990986,31.852633 92.8344094,31.0688246 92.8344094,30.0675046 C92.8344094,29.0661846 93.0867875,28.2823762 93.5915512,27.7160558 C94.096315,27.1497355 94.8124122,26.8665796 95.7398644,26.8665796 C96.3143922,26.8665796 96.810941,26.9937946 97.2295256,27.2482283 C97.6481102,27.5026621 97.9640958,27.8473737 98.1774919,28.2823733 C98.3908879,28.717373 98.4975844,29.2057144 98.4975844,29.7474121 Z M95.7398644,27.7283671 C95.1981667,27.7283671 94.7611217,27.8884117 94.4287162,28.2085058 C94.0963108,28.5285999 93.8931772,28.9800079 93.8193094,29.5627433 L97.5496181,29.5627433 C97.4839578,28.9882155 97.2951872,28.5388593 96.9833006,28.2146615 C96.6714141,27.8904636 96.2569395,27.7283671 95.7398644,27.7283671 Z M103.360528,26.8665796 C104.058169,26.8665796 104.632688,27.0676613 105.084103,27.4698308 C105.535518,27.8720004 105.761222,28.4506233 105.761222,29.2057171 L105.761222,33.1453171 L104.776322,33.1453171 L104.776322,29.5504321 C104.776322,28.9102439 104.638848,28.4465248 104.363895,28.1592608 C104.088942,27.8719969 103.72166,27.7283671 103.262038,27.7283671 C102.933736,27.7283671 102.625958,27.800182 102.338694,27.943814 C102.05143,28.0874459 101.815467,28.3213573 101.630797,28.6455552 C101.446128,28.9697531 101.353794,29.3780721 101.353794,29.8705246 L101.353794,33.1453171 L100.368894,33.1453171 L100.368894,26.9896921 L101.230682,26.9896921 L101.292238,27.9499696 C101.497427,27.5806302 101.780583,27.3077336 102.141714,27.1312715 C102.502846,26.9548093 102.909113,26.8665796 103.360528,26.8665796 Z M114.994659,25.0198921 C116.275036,25.0198921 117.276341,25.3728111 117.998604,26.0786596 C118.720868,26.7845081 119.081994,27.7858131 119.081994,29.0826046 C119.081994,30.3793961 118.720868,31.3807011 117.998604,32.0865496 C117.276341,32.7923981 116.275036,33.1453171 114.994659,33.1453171 L112.372363,33.1453171 L112.372363,25.0198921 L114.994659,25.0198921 Z M115.093149,32.2219733 C116.020602,32.2219733 116.744906,31.944973 117.266085,31.390964 C117.787264,30.836955 118.047849,30.0675095 118.047849,29.0826046 C118.047849,28.0976997 117.787264,27.3282542 117.266085,26.7742452 C116.744906,26.2202362 116.020602,25.9432358 115.093149,25.9432358 L113.357263,25.9432358 L113.357263,32.2219733 L115.093149,32.2219733 Z M126.345632,29.7474121 C126.345632,29.9772232 126.329217,30.2070309 126.296387,30.4368421 L121.655046,30.4368421 C121.712498,31.0606152 121.919736,31.5448529 122.276764,31.8895696 C122.633792,32.2342863 123.095459,32.4066421 123.661779,32.4066421 C124.113194,32.4066421 124.488684,32.3286716 124.788259,32.1727283 C125.087834,32.0167851 125.290968,31.7910811 125.397666,31.4956096 L126.222519,31.9265033 C125.976293,32.361503 125.647996,32.6939034 125.237619,32.9237146 C124.827242,33.1535257 124.301968,33.2684296 123.661779,33.2684296 C122.734327,33.2684296 122.005919,32.9852737 121.476532,32.4189533 C120.947146,31.852633 120.682457,31.0688246 120.682457,30.0675046 C120.682457,29.0661846 120.934835,28.2823762 121.439599,27.7160558 C121.944363,27.1497355 122.66046,26.8665796 123.587912,26.8665796 C124.16244,26.8665796 124.658989,26.9937946 125.077573,27.2482283 C125.496158,27.5026621 125.812143,27.8473737 126.025539,28.2823733 C126.238935,28.717373 126.345632,29.2057144 126.345632,29.7474121 Z M123.587912,27.7283671 C123.046214,27.7283671 122.609169,27.8884117 122.276764,28.2085058 C121.944358,28.5285999 121.741225,28.9800079 121.667357,29.5627433 L125.397666,29.5627433 C125.332005,28.9882155 125.143235,28.5388593 124.831348,28.2146615 C124.519462,27.8904636 124.104987,27.7283671 123.587912,27.7283671 Z M130.309854,33.2684296 C129.718911,33.2684296 129.185429,33.1514739 128.709392,32.917559 C128.233354,32.6836441 127.884539,32.3368806 127.662936,31.8772583 L128.463167,31.3232521 C128.602695,31.6843839 128.844814,31.9552287 129.189531,32.1357946 C129.534247,32.3163605 129.940515,32.4066421 130.408344,32.4066421 C130.892589,32.4066421 131.261923,32.3204642 131.516357,32.1481058 C131.770791,31.9757475 131.898006,31.7582509 131.898006,31.4956096 C131.898006,31.2575909 131.778998,31.0667684 131.540979,30.9231365 C131.302961,30.7795045 130.884382,30.6543414 130.285232,30.5476433 C129.694289,30.4409453 129.226466,30.3116785 128.881749,30.159839 C128.537033,30.0079995 128.286706,29.8151251 128.130763,29.5812102 C127.97482,29.3472953 127.896849,29.0579838 127.896849,28.7132671 C127.896849,28.3767579 127.995338,28.0689797 128.192319,27.7899233 C128.3893,27.510867 128.672456,27.2872148 129.041796,27.1189602 C129.411135,26.9507056 129.837921,26.8665796 130.322166,26.8665796 C130.978769,26.8665796 131.506096,26.987639 131.904161,27.2297615 C132.302227,27.4718839 132.587435,27.8432696 132.759793,28.3439296 L131.922628,28.8363796 C131.791307,28.4424176 131.592278,28.1592617 131.325532,27.9869033 C131.058787,27.814545 130.724335,27.7283671 130.322166,27.7283671 C129.919996,27.7283671 129.579388,27.8186487 129.300332,27.9992146 C129.021275,28.1797805 128.881749,28.3890697 128.881749,28.6270883 C128.881749,28.8979372 129.002809,29.1072264 129.244931,29.2549621 C129.487054,29.4026978 129.919995,29.5299128 130.543768,29.6366108 C131.397352,29.776139 132.000598,29.9854282 132.353522,30.2644846 C132.706446,30.543541 132.882906,30.9374971 132.882906,31.4463646 C132.882906,31.7992889 132.778261,32.1132226 132.568969,32.3881752 C132.359676,32.6631278 132.060106,32.8785726 131.670247,33.0345158 C131.280389,33.1904591 130.826929,33.2684296 130.309854,33.2684296 Z M135.197421,25.8078121 C134.975817,25.8078121 134.797306,25.7401009 134.661881,25.6046765 C134.526457,25.469252 134.458746,25.2907407 134.458746,25.0691371 C134.458746,24.8475335 134.526457,24.6690221 134.661881,24.5335977 C134.797306,24.3981733 134.975817,24.3304621 135.197421,24.3304621 C135.419024,24.3304621 135.597536,24.3981733 135.73296,24.5335977 C135.868384,24.6690221 135.936096,24.8475335 135.936096,25.0691371 C135.936096,25.2907407 135.868384,25.469252 135.73296,25.6046765 C135.597536,25.7401009 135.419024,25.8078121 135.197421,25.8078121 Z M135.689871,33.1453171 L134.704971,33.1453171 L134.704971,26.9896921 L135.689871,26.9896921 L135.689871,33.1453171 Z M141.414602,32.3573971 C141.997337,32.3573971 142.452849,32.4887158 142.781151,32.7513571 C143.109452,33.0139984 143.273601,33.3710211 143.273601,33.8224358 C143.273601,34.2163978 143.138178,34.5631612 142.867329,34.8627365 C142.596481,35.1623117 142.229199,35.3921194 141.765472,35.5521665 C141.301746,35.7122135 140.790835,35.7922358 140.232722,35.7922358 C139.297062,35.7922358 138.591224,35.6424505 138.115187,35.3428752 C137.639149,35.0433 137.401134,34.6513958 137.401134,34.1671508 C137.401134,33.8880945 137.497572,33.6418719 137.690449,33.4284758 C137.883326,33.2150798 138.148015,33.0632425 138.484524,32.9729596 C138.230091,32.8498465 138.026957,32.6939055 137.875117,32.5051321 C137.723278,32.3163587 137.647359,32.0947584 137.647359,31.8403246 C137.647359,31.5366456 137.729434,31.2842675 137.893584,31.0831827 C138.057735,30.882098 138.283439,30.7323126 138.570703,30.6338221 C138.275232,30.4532562 138.05158,30.2172929 137.89974,29.9259252 C137.7479,29.6345575 137.671982,29.3083127 137.671982,28.9471808 C137.671982,28.5450113 137.778678,28.1859368 137.992074,27.8699465 C138.20547,27.5539561 138.505041,27.3077336 138.890796,27.1312715 C139.27655,26.9548093 139.711543,26.8665796 140.195788,26.8665796 C140.65541,26.8665796 141.073989,26.9486538 141.451536,27.1128046 C141.681347,26.2756354 142.25997,25.8570571 143.187422,25.8570571 L143.409024,26.7188446 C142.604685,26.7188446 142.116344,26.9445486 141.943986,27.3959633 C142.190212,27.5847368 142.381034,27.8104408 142.516459,28.0730821 C142.651883,28.3357234 142.719594,28.6270867 142.719594,28.9471808 C142.719594,29.3493504 142.612898,29.7084249 142.399502,30.0244152 C142.186106,30.3404056 141.886535,30.5866281 141.500781,30.7630902 C141.115026,30.9395524 140.680033,31.0277821 140.195788,31.0277821 C139.834656,31.0277821 139.518671,30.9908487 139.247822,30.9169808 C139.001596,30.9744336 138.825136,31.0647152 138.718438,31.1878283 C138.61174,31.3109415 138.558392,31.4791935 138.558392,31.6925896 C138.558392,31.9059857 138.632259,32.070134 138.779994,32.1850396 C138.92773,32.2999452 139.124708,32.3573971 139.370934,32.3573971 L141.414602,32.3573971 Z M140.195788,27.6668108 C139.768996,27.6668108 139.411973,27.7858184 139.124709,28.0238371 C138.837445,28.2618558 138.693816,28.569634 138.693816,28.9471808 C138.693816,29.3247277 138.837445,29.6325059 139.124709,29.8705246 C139.411973,30.1085433 139.768996,30.2275508 140.195788,30.2275508 C140.62258,30.2275508 140.979603,30.1085433 141.266867,29.8705246 C141.554131,29.6325059 141.697761,29.3247277 141.697761,28.9471808 C141.697761,28.569634 141.554131,28.2618558 141.266867,28.0238371 C140.979603,27.7858184 140.62258,27.6668108 140.195788,27.6668108 Z M140.343523,34.9673821 C140.967296,34.9673821 141.459741,34.8668412 141.820873,34.6657565 C142.182005,34.4646717 142.362568,34.220501 142.362568,33.9332371 C142.362568,33.6952184 142.270235,33.5146552 142.085565,33.3915421 C141.900895,33.268429 141.586962,33.2068733 141.143754,33.2068733 L139.494047,33.2068733 C139.1165,33.2068733 138.825137,33.2745845 138.619948,33.410009 C138.41476,33.5454334 138.312167,33.7321522 138.312167,33.9701708 C138.312167,34.2820574 138.484523,34.5262281 138.829239,34.7026902 C139.173956,34.8791524 139.678712,34.9673821 140.343523,34.9673821 Z M147.730273,26.8665796 C148.427914,26.8665796 149.002433,27.0676613 149.453848,27.4698308 C149.905263,27.8720004 150.130967,28.4506233 150.130967,29.2057171 L150.130967,33.1453171 L149.146067,33.1453171 L149.146067,29.5504321 C149.146067,28.9102439 149.008593,28.4465248 148.73364,28.1592608 C148.458687,27.8719969 148.091405,27.7283671 147.631783,27.7283671 C147.303481,27.7283671 146.995703,27.800182 146.708439,27.943814 C146.421175,28.0874459 146.185212,28.3213573 146.000542,28.6455552 C145.815873,28.9697531 145.723539,29.3780721 145.723539,29.8705246 L145.723539,33.1453171 L144.738639,33.1453171 L144.738639,26.9896921 L145.600427,26.9896921 L145.661983,27.9499696 C145.867172,27.5806302 146.150328,27.3077336 146.511459,27.1312715 C146.872591,26.9548093 147.278858,26.8665796 147.730273,26.8665796 Z" id="Content-Driven-Desig"></path>
            </g>
        </g>
    </g>
</svg>