<?xml version="1.0" encoding="UTF-8"?>
<svg width="167px" height="41px" viewBox="0 0 167 41" version="1.1" xmlns="http://www.w3.org/2000/svg" xmlns:xlink="http://www.w3.org/1999/xlink">
    <!-- Generator: Sketch 52.6 (67491) - http://www.bohemiancoding.com/sketch -->
    <title>Group</title>
    <desc>Created with Sketch.</desc>
    <g id="Page-1" stroke="none" stroke-width="1" fill="none" fill-rule="evenodd">
        <g id="1440-Landingpage-Copy-3" transform="translate(-636.000000, -124.000000)" fill="#FFFFFF">
            <g id="Group" transform="translate(636.000000, 124.000000)">
                <path d="M12.4298609,14.4167545 C12.4298609,17.7620615 10.2172169,19.7639775 6.92459189,19.7639775 L0.94518489,19.7639775 L0.94518489,1.53600554 L6.55581789,1.53600554 C10.1381939,1.53600554 12.0084049,3.35353454 12.0084049,6.46177254 C12.0084049,8.06857354 11.2445159,9.51732854 10.0855119,10.1495125 C11.6132899,10.8870605 12.4298609,12.2304515 12.4298609,14.4167545 Z M6.39777189,11.9933825 L4.55390189,11.9933825 L4.55390189,16.5767165 L6.39777189,16.5767165 C7.84652689,16.5767165 8.66309789,15.6284405 8.66309789,14.2587085 C8.66309789,12.8362945 7.84652689,11.9933825 6.39777189,11.9933825 Z M6.23972589,4.69692554 L4.55390189,4.69692554 L4.55390189,8.88514454 L6.23972589,8.88514454 C7.53043489,8.88514454 8.26798289,8.12125554 8.26798289,6.77786454 C8.26798289,5.43447354 7.55677589,4.69692554 6.23972589,4.69692554 Z M27.7625489,13.8635935 L17.7002869,13.8635935 C17.8846739,15.7338045 19.2017239,16.8664675 21.2036399,16.8664675 C22.9948279,16.8664675 24.0221269,15.9181915 24.7596749,14.7591875 L27.3674339,16.3396475 C26.5245219,18.1044945 24.6279699,20.0010465 21.2036399,20.0010465 C16.9363979,20.0010465 13.9862059,17.2352415 13.9862059,12.7572715 C13.9862059,8.54271154 16.8310339,5.43447354 20.9138889,5.43447354 C25.1547899,5.43447354 27.8152309,8.20027854 27.8152309,12.4148385 C27.8152309,12.7572715 27.8152309,13.2577505 27.7625489,13.8635935 Z M20.8875479,8.41100654 C19.0963599,8.41100654 17.9636969,9.59635154 17.7793099,11.2031525 L24.1538319,11.2031525 C23.9957859,9.62269254 22.8104409,8.41100654 20.8875479,8.41100654 Z M33.1646799,0.508706537 L33.1646799,19.7639775 L29.6349859,19.7639775 L29.6349859,0.508706537 L33.1646799,0.508706537 Z M39.1199719,5.67154254 L39.1199719,19.7639775 L35.5902779,19.7639775 L35.5902779,5.67154254 L39.1199719,5.67154254 Z M37.3551249,4.77594854 C36.1961209,4.77594854 35.2478449,3.85401354 35.2478449,2.69500954 C35.2478449,1.50966454 36.1961209,0.561388537 37.3551249,0.561388537 C38.5404699,0.561388537 39.4624049,1.50966454 39.4624049,2.69500954 C39.4624049,3.85401354 38.5404699,4.77594854 37.3551249,4.77594854 Z M48.9210499,19.7639775 L48.9210499,10.8870605 C48.9210499,9.51732854 48.3152069,8.64807554 47.0244979,8.64807554 C45.7601299,8.64807554 45.0752639,9.54366954 45.0752639,10.8870605 L45.0752639,19.7639775 L41.5455699,19.7639775 L41.5455699,5.67154254 L45.0752639,5.67154254 L45.0752639,6.72518254 C45.4176969,6.30372654 46.3132909,5.51349654 48.0517969,5.51349654 C51.3444219,5.51349654 52.4507439,7.75248154 52.4507439,10.4656045 L52.4507439,19.7639775 L48.9210499,19.7639775 Z M65.6761519,6.98859254 L65.6761519,5.67154254 L68.9951179,5.67154254 L68.9951179,17.3932875 C68.9951179,22.6878285 65.8341979,24.5843805 61.4615919,24.5843805 C59.2489479,24.5843805 57.3787369,23.9785375 56.2197329,23.3200125 L57.3523959,20.5278665 C58.1953079,21.0020045 59.7230859,21.5551655 61.4879329,21.5551655 C63.7005769,21.5551655 65.4654239,20.6595715 65.4917649,18.6049735 L65.4917649,18.4205865 C64.8859219,19.1317935 63.5952129,20.0010465 61.5932969,20.0010465 C57.2470319,20.0010465 54.2968399,17.0508545 54.2968399,12.7572715 C54.2968399,8.67441654 57.2470319,5.43447354 61.4615919,5.43447354 C63.2791209,5.43447354 64.7805579,6.04031654 65.6761519,6.98859254 Z M57.8265339,12.7309305 C57.8265339,15.1016205 59.4333349,16.8664675 61.7250019,16.8664675 C64.0956919,16.8664675 65.5971289,15.0752795 65.5971289,12.7309305 C65.5971289,10.3602405 64.0430099,8.56905254 61.7250019,8.56905254 C59.3543119,8.56905254 57.8265339,10.3602405 57.8265339,12.7309305 Z M81.1142039,4.96033554 L77.7952379,4.96033554 L77.7952379,19.7639775 L74.1338389,19.7639775 L74.1338389,4.96033554 L70.8148729,4.96033554 L70.8148729,1.53600554 L81.1142039,1.53600554 L81.1142039,4.96033554 Z M90.3357799,19.7639775 L90.3357799,10.8870605 C90.3357799,9.51732854 89.7299369,8.64807554 88.4392279,8.64807554 C87.1748599,8.64807554 86.4899939,9.54366954 86.4899939,10.8870605 L86.4899939,19.7639775 L82.9602999,19.7639775 L82.9602999,0.508706537 L86.4899939,0.508706537 L86.4899939,6.72518254 C86.8587679,6.30372654 87.7280209,5.51349654 89.4665269,5.51349654 C92.7591519,5.51349654 93.8654739,7.75248154 93.8654739,10.4656045 L93.8654739,19.7639775 L90.3357799,19.7639775 Z M99.2412639,12.7309305 C99.2412639,15.1016205 100.821724,16.8137855 103.08705,16.8137855 C105.405058,16.8137855 106.906495,15.0752795 106.906495,12.7309305 C106.906495,10.3865815 105.326035,8.62173454 103.060709,8.62173454 C100.742701,8.62173454 99.2412639,10.3602405 99.2412639,12.7309305 Z M95.7115699,12.7572715 C95.7115699,8.56905254 98.8198079,5.43447354 103.060709,5.43447354 C107.512338,5.43447354 110.436189,8.54271154 110.436189,12.7045895 C110.436189,16.8401265 107.406974,20.0010465 103.060709,20.0010465 C98.6617619,20.0010465 95.7115699,16.9191495 95.7115699,12.7572715 Z M125.58449,13.8635935 L115.522228,13.8635935 C115.706615,15.7338045 117.023665,16.8664675 119.025581,16.8664675 C120.816769,16.8664675 121.844068,15.9181915 122.581616,14.7591875 L125.189375,16.3396475 C124.346463,18.1044945 122.449911,20.0010465 119.025581,20.0010465 C114.758339,20.0010465 111.808147,17.2352415 111.808147,12.7572715 C111.808147,8.54271154 114.652975,5.43447354 118.73583,5.43447354 C122.976731,5.43447354 125.637172,8.20027854 125.637172,12.4148385 C125.637172,12.7572715 125.637172,13.2577505 125.58449,13.8635935 Z M118.709489,8.41100654 C116.918301,8.41100654 115.785638,9.59635154 115.601251,11.2031525 L121.975773,11.2031525 C121.817727,9.62269254 120.632382,8.41100654 118.709489,8.41100654 Z M134.832407,19.7639775 L134.832407,10.8870605 C134.832407,9.51732854 134.226564,8.64807554 132.935855,8.64807554 C131.671487,8.64807554 130.986621,9.54366954 130.986621,10.8870605 L130.986621,19.7639775 L127.456927,19.7639775 L127.456927,5.67154254 L130.986621,5.67154254 L130.986621,6.72518254 C131.329054,6.30372654 132.224648,5.51349654 133.963154,5.51349654 C137.255779,5.51349654 138.362101,7.75248154 138.362101,10.4656045 L138.362101,19.7639775 L134.832407,19.7639775 Z M153.98454,13.8635935 L143.922278,13.8635935 C144.106665,15.7338045 145.423715,16.8664675 147.425631,16.8664675 C149.216819,16.8664675 150.244118,15.9181915 150.981666,14.7591875 L153.589425,16.3396475 C152.746513,18.1044945 150.849961,20.0010465 147.425631,20.0010465 C143.158389,20.0010465 140.208197,17.2352415 140.208197,12.7572715 C140.208197,8.54271154 143.053025,5.43447354 147.13588,5.43447354 C151.376781,5.43447354 154.037222,8.20027854 154.037222,12.4148385 C154.037222,12.7572715 154.037222,13.2577505 153.98454,13.8635935 Z M147.109539,8.41100654 C145.318351,8.41100654 144.185688,9.59635154 144.001301,11.2031525 L150.375823,11.2031525 C150.217777,9.62269254 149.032432,8.41100654 147.109539,8.41100654 Z M163.232457,19.7639775 L163.232457,10.8870605 C163.232457,9.51732854 162.626614,8.64807554 161.335905,8.64807554 C160.071537,8.64807554 159.386671,9.54366954 159.386671,10.8870605 L159.386671,19.7639775 L155.856977,19.7639775 L155.856977,5.67154254 L159.386671,5.67154254 L159.386671,6.72518254 C159.729104,6.30372654 160.624698,5.51349654 162.363204,5.51349654 C165.655829,5.51349654 166.762151,7.75248154 166.762151,10.4656045 L166.762151,19.7639775 L163.232457,19.7639775 Z" id="BelingThoenen"></path>
                <path d="M21.6745316,36.073262 C21.4100073,36.7900376 20.9748287,37.3510768 20.3689826,37.7563963 C19.7631366,38.1617158 19.0634376,38.3643725 18.2698646,38.3643725 C17.4762917,38.3643725 16.7851256,38.1873146 16.1963456,37.8331933 C15.6075657,37.479072 15.153188,36.9756301 14.8331989,36.3228523 C14.5132098,35.6700745 14.3532176,34.899979 14.3532176,34.0125425 C14.3532176,33.1336391 14.5132098,32.3656768 14.8331989,31.7086325 C15.153188,31.0515883 15.6075657,30.5460131 16.1963456,30.1918918 C16.7851256,29.8377705 17.4677588,29.6607125 18.2442656,29.6607125 C19.0549047,29.6607125 19.7354046,29.8271044 20.2857859,30.159893 C20.8361671,30.4926817 21.2478803,30.9833243 21.5209376,31.6318355 L20.5097771,32.105417 C20.3220502,31.6105006 20.0489969,31.2393188 19.6906091,30.9918605 C19.3322213,30.7444023 18.8757104,30.620675 18.3210626,30.620675 C17.7408157,30.620675 17.2331073,30.7550684 16.7979221,31.0238593 C16.362737,31.2926501 16.0256868,31.683031 15.7867616,32.1950135 C15.5478364,32.7069961 15.4283756,33.312833 15.4283756,34.0125425 C15.4283756,35.0706398 15.6822299,35.9004658 16.1899459,36.5020453 C16.6976619,37.1036248 17.3909612,37.40441 18.2698646,37.40441 C18.8415785,37.40441 19.3364875,37.2593505 19.7546066,36.969227 C20.1727257,36.6791036 20.4713777,36.2524579 20.6505716,35.689277 L21.6745316,36.073262 Z M26.1543566,31.7086325 C27.1185905,31.7086325 27.8758866,32.0030181 28.4262679,32.591798 C28.9766491,33.180578 29.2518356,33.9954713 29.2518356,35.0365025 C29.2518356,36.0775337 28.9766491,36.8924271 28.4262679,37.481207 C27.8758866,38.069987 27.1185905,38.3643725 26.1543566,38.3643725 C25.1901228,38.3643725 24.4328266,38.069987 23.8824454,37.481207 C23.3320641,36.8924271 23.0568776,36.0775337 23.0568776,35.0365025 C23.0568776,33.9954713 23.3320641,33.180578 23.8824454,32.591798 C24.4328266,32.0030181 25.1901228,31.7086325 26.1543566,31.7086325 Z M26.1543566,32.591798 C25.5058454,32.591798 24.998137,32.8093874 24.6312161,33.2445725 C24.2642953,33.6797577 24.0808376,34.2770617 24.0808376,35.0365025 C24.0808376,35.7959433 24.2642953,36.3932474 24.6312161,36.8284325 C24.998137,37.2636177 25.5058454,37.481207 26.1543566,37.481207 C26.8028679,37.481207 27.3105763,37.2636177 27.6774971,36.8284325 C28.044418,36.3932474 28.2278756,35.7959433 28.2278756,35.0365025 C28.2278756,34.2770617 28.044418,33.6797577 27.6774971,33.2445725 C27.3105763,32.8093874 26.8028679,32.591798 26.1543566,32.591798 Z M34.3460366,31.7086325 C35.0713453,31.7086325 35.6686493,31.9176889 36.1379666,32.335808 C36.607284,32.7539271 36.8419391,33.3554976 36.8419391,34.1405375 L36.8419391,38.2363775 L35.8179791,38.2363775 L35.8179791,34.4989235 C35.8179791,33.8333462 35.6750528,33.3512365 35.3891959,33.05258 C35.103339,32.7539235 34.721491,32.6045975 34.2436406,32.6045975 C33.9023189,32.6045975 33.5823346,32.6792605 33.2836781,32.8285888 C32.9850216,32.977917 32.7397004,33.2211051 32.5477069,33.5581603 C32.3557134,33.8952155 32.2597181,34.319728 32.2597181,34.8317105 L32.2597181,38.2363775 L31.2357581,38.2363775 L31.2357581,31.8366275 L32.1317231,31.8366275 L32.1957206,32.8349885 C32.4090467,32.4510016 32.7034323,32.1672822 33.0788861,31.9838218 C33.45434,31.8003614 33.8767193,31.7086325 34.3460366,31.7086325 Z M43.0752956,37.788395 C42.6486435,38.172382 42.0982705,38.3643725 41.4241601,38.3643725 C40.9036445,38.3643725 40.479132,38.2235794 40.1506099,37.941989 C39.8220877,37.6603986 39.6535627,37.2294864 39.6450296,36.6492395 L39.6450296,32.719793 L38.3650796,32.719793 L38.3650796,31.8366275 L39.6450296,31.8366275 L39.6450296,30.3006875 L40.6689896,30.0190985 L40.6689896,31.8366275 L43.0368971,31.8366275 L43.0368971,32.719793 L40.6689896,32.719793 L40.6689896,36.4700465 C40.6689896,36.7772361 40.756452,37.009758 40.9313794,37.1676193 C41.1063068,37.3254806 41.3388287,37.40441 41.6289521,37.40441 C42.0385382,37.40441 42.4011871,37.2465511 42.7169096,36.9308285 L43.0752956,37.788395 Z M50.0126246,34.7037155 C50.0126246,34.9426407 49.9955588,35.1815623 49.9614266,35.4204875 L45.1360151,35.4204875 C45.1957464,36.0689988 45.4112025,36.5724407 45.7823899,36.9308285 C46.1535772,37.2892163 46.6335537,37.4684075 47.2223336,37.4684075 C47.691651,37.4684075 48.0820318,37.3873448 48.3934879,37.225217 C48.7049439,37.0630892 48.9161336,36.8284341 49.0270631,36.5212445 L49.8846296,36.969227 C49.6286384,37.4214783 49.2873218,37.7670613 48.8606696,38.0059865 C48.4340175,38.2449117 47.887911,38.3643725 47.2223336,38.3643725 C46.2580998,38.3643725 45.5008036,38.069987 44.9504224,37.481207 C44.4000411,36.8924271 44.1248546,36.0775337 44.1248546,35.0365025 C44.1248546,33.9954713 44.3872418,33.180578 44.9120239,32.591798 C45.436806,32.0030181 46.1813028,31.7086325 47.1455366,31.7086325 C47.7428496,31.7086325 48.259091,31.8408927 48.6942761,32.105417 C49.1294613,32.3699414 49.4579785,32.7283238 49.6798376,33.180575 C49.9016967,33.6328263 50.0126246,34.1405347 50.0126246,34.7037155 Z M47.1455366,32.6045975 C46.5823558,32.6045975 46.1279781,32.7709894 45.7823899,33.103778 C45.4368017,33.4365667 45.225612,33.905877 45.1488146,34.511723 L49.0270631,34.511723 C48.9587988,33.9144101 48.7625418,33.447233 48.4382861,33.1101778 C48.1140305,32.7731226 47.6831183,32.6045975 47.1455366,32.6045975 Z M55.0684271,31.7086325 C55.7937358,31.7086325 56.3910398,31.9176889 56.8603571,32.335808 C57.3296745,32.7539271 57.5643296,33.3554976 57.5643296,34.1405375 L57.5643296,38.2363775 L56.5403696,38.2363775 L56.5403696,34.4989235 C56.5403696,33.8333462 56.3974433,33.3512365 56.1115864,33.05258 C55.8257295,32.7539235 55.4438815,32.6045975 54.9660311,32.6045975 C54.6247094,32.6045975 54.3047251,32.6792605 54.0060686,32.8285888 C53.7074121,32.977917 53.4620909,33.2211051 53.2700974,33.5581603 C53.0781039,33.8952155 52.9821086,34.319728 52.9821086,34.8317105 L52.9821086,38.2363775 L51.9581486,38.2363775 L51.9581486,31.8366275 L52.8541136,31.8366275 L52.9181111,32.8349885 C53.1314372,32.4510016 53.4258228,32.1672822 53.8012766,31.9838218 C54.1767305,31.8003614 54.5991098,31.7086325 55.0684271,31.7086325 Z M63.7976861,37.788395 C63.371034,38.172382 62.820661,38.3643725 62.1465506,38.3643725 C61.626035,38.3643725 61.2015225,38.2235794 60.8730004,37.941989 C60.5444782,37.6603986 60.3759532,37.2294864 60.3674201,36.6492395 L60.3674201,32.719793 L59.0874701,32.719793 L59.0874701,31.8366275 L60.3674201,31.8366275 L60.3674201,30.3006875 L61.3913801,30.0190985 L61.3913801,31.8366275 L63.7592876,31.8366275 L63.7592876,32.719793 L61.3913801,32.719793 L61.3913801,36.4700465 C61.3913801,36.7772361 61.4788425,37.009758 61.6537699,37.1676193 C61.8286973,37.3254806 62.0612192,37.40441 62.3513426,37.40441 C62.7609287,37.40441 63.1235776,37.2465511 63.4393001,36.9308285 L63.7976861,37.788395 Z M72.5269451,29.7887075 C73.8580998,29.7887075 74.8991154,30.1556229 75.6500231,30.8894645 C76.4009309,31.6233062 76.7763791,32.6643218 76.7763791,34.0125425 C76.7763791,35.3607633 76.4009309,36.4017789 75.6500231,37.1356205 C74.8991154,37.8694622 73.8580998,38.2363775 72.5269451,38.2363775 L69.8006516,38.2363775 L69.8006516,29.7887075 L72.5269451,29.7887075 Z M72.6293411,37.276415 C73.593575,37.276415 74.3466047,36.9884292 74.8884529,36.4124488 C75.4303011,35.8364684 75.7012211,35.0365077 75.7012211,34.0125425 C75.7012211,32.9885774 75.4303011,32.1886167 74.8884529,31.6126363 C74.3466047,31.0366559 73.593575,30.74867 72.6293411,30.74867 L70.8246116,30.74867 L70.8246116,37.276415 L72.6293411,37.276415 Z M81.8577806,31.7086325 C82.1649702,31.7086325 82.3996253,31.7512971 82.5617531,31.8366275 L82.3569611,32.8349885 C82.1521681,32.724059 81.8833813,32.668595 81.5505926,32.668595 C81.2775353,32.668595 81.0108817,32.7475245 80.7506239,32.9053858 C80.4903661,33.0632471 80.2770432,33.3021687 80.1106489,33.6221578 C79.9442546,33.9421469 79.8610586,34.3282613 79.8610586,34.7805125 L79.8610586,38.2363775 L78.8370986,38.2363775 L78.8370986,31.8366275 L79.6690661,31.8366275 L79.8098606,32.8861865 C80.1682484,32.1011466 80.8508816,31.7086325 81.8577806,31.7086325 Z M84.5712746,30.6078755 C84.3408825,30.6078755 84.1552916,30.537479 84.0144964,30.3966838 C83.8737012,30.2558886 83.8033046,30.0702977 83.8033046,29.8399055 C83.8033046,29.6095134 83.8737012,29.4239225 84.0144964,29.2831273 C84.1552916,29.1423321 84.3408825,29.0719355 84.5712746,29.0719355 C84.8016668,29.0719355 84.9872577,29.1423321 85.1280529,29.2831273 C85.2688481,29.4239225 85.3392446,29.6095134 85.3392446,29.8399055 C85.3392446,30.0702977 85.2688481,30.2558886 85.1280529,30.3966838 C84.9872577,30.537479 84.8016668,30.6078755 84.5712746,30.6078755 Z M85.0832546,38.2363775 L84.0592946,38.2363775 L84.0592946,31.8366275 L85.0832546,31.8366275 L85.0832546,38.2363775 Z M92.7757541,31.8366275 L90.1134581,38.2363775 L89.0894981,38.2363775 L86.4272021,31.8366275 L87.5919566,31.8366275 L89.6142776,37.199618 L91.7005961,31.8366275 L92.7757541,31.8366275 Z M99.6106871,34.7037155 C99.6106871,34.9426407 99.5936213,35.1815623 99.5594891,35.4204875 L94.7340776,35.4204875 C94.7938089,36.0689988 95.009265,36.5724407 95.3804524,36.9308285 C95.7516397,37.2892163 96.2316162,37.4684075 96.8203961,37.4684075 C97.2897135,37.4684075 97.6800943,37.3873448 97.9915504,37.225217 C98.3030064,37.0630892 98.5141961,36.8284341 98.6251256,36.5212445 L99.4826921,36.969227 C99.2267009,37.4214783 98.8853843,37.7670613 98.4587321,38.0059865 C98.03208,38.2449117 97.4859735,38.3643725 96.8203961,38.3643725 C95.8561623,38.3643725 95.0988661,38.069987 94.5484849,37.481207 C93.9981036,36.8924271 93.7229171,36.0775337 93.7229171,35.0365025 C93.7229171,33.9954713 93.9853043,33.180578 94.5100864,32.591798 C95.0348685,32.0030181 95.7793653,31.7086325 96.7435991,31.7086325 C97.3409121,31.7086325 97.8571535,31.8408927 98.2923386,32.105417 C98.7275238,32.3699414 99.056041,32.7283238 99.2779001,33.180575 C99.4997592,33.6328263 99.6106871,34.1405347 99.6106871,34.7037155 Z M96.7435991,32.6045975 C96.1804183,32.6045975 95.7260406,32.7709894 95.3804524,33.103778 C95.0348642,33.4365667 94.8236745,33.905877 94.7468771,34.511723 L98.6251256,34.511723 C98.5568613,33.9144101 98.3606043,33.447233 98.0363486,33.1101778 C97.712093,32.7731226 97.2811808,32.6045975 96.7435991,32.6045975 Z M104.66649,31.7086325 C105.391798,31.7086325 105.989102,31.9176889 106.45842,32.335808 C106.927737,32.7539271 107.162392,33.3554976 107.162392,34.1405375 L107.162392,38.2363775 L106.138432,38.2363775 L106.138432,34.4989235 C106.138432,33.8333462 105.995506,33.3512365 105.709649,33.05258 C105.423792,32.7539235 105.041944,32.6045975 104.564094,32.6045975 C104.222772,32.6045975 103.902788,32.6792605 103.604131,32.8285888 C103.305475,32.977917 103.060153,33.2211051 102.86816,33.5581603 C102.676166,33.8952155 102.580171,34.319728 102.580171,34.8317105 L102.580171,38.2363775 L101.556211,38.2363775 L101.556211,31.8366275 L102.452176,31.8366275 L102.516174,32.8349885 C102.7295,32.4510016 103.023885,32.1672822 103.399339,31.9838218 C103.774793,31.8003614 104.197172,31.7086325 104.66649,31.7086325 Z M116.762017,29.7887075 C118.093172,29.7887075 119.134187,30.1556229 119.885095,30.8894645 C120.636003,31.6233062 121.011451,32.6643218 121.011451,34.0125425 C121.011451,35.3607633 120.636003,36.4017789 119.885095,37.1356205 C119.134187,37.8694622 118.093172,38.2363775 116.762017,38.2363775 L114.035724,38.2363775 L114.035724,29.7887075 L116.762017,29.7887075 Z M116.864413,37.276415 C117.828647,37.276415 118.581677,36.9884292 119.123525,36.4124488 C119.665373,35.8364684 119.936293,35.0365077 119.936293,34.0125425 C119.936293,32.9885774 119.665373,32.1886167 119.123525,31.6126363 C118.581677,31.0366559 117.828647,30.74867 116.864413,30.74867 L115.059684,30.74867 L115.059684,37.276415 L116.864413,37.276415 Z M128.563156,34.7037155 C128.563156,34.9426407 128.54609,35.1815623 128.511958,35.4204875 L123.686547,35.4204875 C123.746278,36.0689988 123.961734,36.5724407 124.332921,36.9308285 C124.704109,37.2892163 125.184085,37.4684075 125.772865,37.4684075 C126.242182,37.4684075 126.632563,37.3873448 126.944019,37.225217 C127.255475,37.0630892 127.466665,36.8284341 127.577595,36.5212445 L128.435161,36.969227 C128.17917,37.4214783 127.837853,37.7670613 127.411201,38.0059865 C126.984549,38.2449117 126.438442,38.3643725 125.772865,38.3643725 C124.808631,38.3643725 124.051335,38.069987 123.500954,37.481207 C122.950573,36.8924271 122.675386,36.0775337 122.675386,35.0365025 C122.675386,33.9954713 122.937773,33.180578 123.462555,32.591798 C123.987338,32.0030181 124.731834,31.7086325 125.696068,31.7086325 C126.293381,31.7086325 126.809622,31.8408927 127.244808,32.105417 C127.679993,32.3699414 128.00851,32.7283238 128.230369,33.180575 C128.452228,33.6328263 128.563156,34.1405347 128.563156,34.7037155 Z M125.696068,32.6045975 C125.132887,32.6045975 124.67851,32.7709894 124.332921,33.103778 C123.987333,33.4365667 123.776144,33.905877 123.699346,34.511723 L127.577595,34.511723 C127.50933,33.9144101 127.313073,33.447233 126.988818,33.1101778 C126.664562,32.7731226 126.23365,32.6045975 125.696068,32.6045975 Z M132.684595,38.3643725 C132.070216,38.3643725 131.515577,38.2427785 131.02066,37.9995868 C130.525744,37.7563951 130.163095,37.3958794 129.932703,36.918029 L130.76467,36.3420515 C130.909732,36.7175054 131.161453,36.9990916 131.519841,37.1868185 C131.878228,37.3745455 132.300608,37.4684075 132.786991,37.4684075 C133.290441,37.4684075 133.674422,37.3788119 133.938946,37.199618 C134.20347,37.0204241 134.335731,36.7943019 134.335731,36.5212445 C134.335731,36.2737863 134.212003,36.075396 133.964545,35.9260678 C133.717087,35.7767395 133.281908,35.6466126 132.658996,35.535683 C132.044617,35.4247535 131.558241,35.2903601 131.199853,35.1324988 C130.841465,34.9746375 130.581211,34.774114 130.419084,34.5309223 C130.256956,34.2877306 130.175893,33.9869453 130.175893,33.6285575 C130.175893,33.2787028 130.278288,32.9587185 130.483081,32.668595 C130.687874,32.3784716 130.98226,32.1459497 131.366247,31.9710223 C131.750234,31.7960949 132.193945,31.7086325 132.697395,31.7086325 C133.380038,31.7086325 133.928278,31.834493 134.34213,32.0862178 C134.755983,32.3379425 135.052502,32.7240569 135.231696,33.2445725 L134.36133,33.7565525 C134.224801,33.3469665 134.017878,33.0525809 133.740554,32.873387 C133.46323,32.6941931 133.115514,32.6045975 132.697395,32.6045975 C132.279276,32.6045975 131.92516,32.6984596 131.635036,32.8861865 C131.344913,33.0739135 131.199853,33.2915028 131.199853,33.538961 C131.199853,33.8205514 131.325714,34.0381408 131.577438,34.1917355 C131.829163,34.3453303 132.279274,34.4775905 132.927786,34.58852 C133.815222,34.7335818 134.442391,34.9511711 134.809312,35.2412945 C135.176233,35.531418 135.359691,35.9409979 135.359691,36.4700465 C135.359691,36.8369674 135.250896,37.1633514 135.033303,37.4492083 C134.815711,37.7350652 134.504259,37.9590542 134.09894,38.121182 C133.69362,38.2833098 133.222177,38.3643725 132.684595,38.3643725 Z M137.765997,30.6078755 C137.535604,30.6078755 137.350014,30.537479 137.209218,30.3966838 C137.068423,30.2558886 136.998027,30.0702977 136.998027,29.8399055 C136.998027,29.6095134 137.068423,29.4239225 137.209218,29.2831273 C137.350014,29.1423321 137.535604,29.0719355 137.765997,29.0719355 C137.996389,29.0719355 138.18198,29.1423321 138.322775,29.2831273 C138.46357,29.4239225 138.533967,29.6095134 138.533967,29.8399055 C138.533967,30.0702977 138.46357,30.2558886 138.322775,30.3966838 C138.18198,30.537479 137.996389,30.6078755 137.765997,30.6078755 Z M138.277977,38.2363775 L137.254017,38.2363775 L137.254017,31.8366275 L138.277977,31.8366275 L138.277977,38.2363775 Z M144.229744,37.4172095 C144.83559,37.4172095 145.309167,37.5537362 145.650489,37.8267935 C145.99181,38.0998509 146.162469,38.4710327 146.162469,38.94035 C146.162469,39.3499361 146.021676,39.7104517 145.740085,40.0219078 C145.458495,40.3333638 145.076647,40.5722855 144.59453,40.7386798 C144.112413,40.9050741 143.581239,40.98827 143.000992,40.98827 C142.028225,40.98827 141.294395,40.8325443 140.799478,40.5210883 C140.304562,40.2096322 140.057107,39.8021856 140.057107,39.298736 C140.057107,39.0086126 140.157369,38.7526251 140.357895,38.530766 C140.558422,38.3089069 140.833608,38.151048 141.183463,38.0571845 C140.918939,37.9291889 140.707749,37.7670635 140.549888,37.5708035 C140.392027,37.3745436 140.313097,37.1441549 140.313097,36.8796305 C140.313097,36.563908 140.398426,36.3015208 140.569087,36.0924613 C140.739748,35.8834017 140.974403,35.727676 141.27306,35.6252795 C140.96587,35.4375526 140.733348,35.1922313 140.575487,34.8893083 C140.417626,34.5863853 140.338696,34.2472019 140.338696,33.871748 C140.338696,33.4536289 140.449624,33.0803139 140.671483,32.7517918 C140.893342,32.4232696 141.204794,32.1672822 141.605847,31.9838218 C142.0069,31.8003614 142.459144,31.7086325 142.962594,31.7086325 C143.440444,31.7086325 143.875623,31.7939617 144.268143,31.9646225 C144.507068,31.0942522 145.108638,30.6590735 146.072872,30.6590735 L146.303263,31.5550385 C145.467025,31.5550385 144.959317,31.7896937 144.780123,32.259011 C145.036114,32.455271 145.234504,32.6899262 145.375299,32.9629835 C145.516095,33.2360409 145.586491,33.5389594 145.586491,33.871748 C145.586491,34.2898671 145.475563,34.6631821 145.253704,34.9917043 C145.031845,35.3202264 144.720394,35.5762139 144.319341,35.7596743 C143.918288,35.9431347 143.466043,36.0348635 142.962594,36.0348635 C142.58714,36.0348635 142.258623,35.9964654 141.977032,35.919668 C141.721041,35.9793993 141.537583,36.0732614 141.426654,36.201257 C141.315724,36.3292527 141.26026,36.5041774 141.26026,36.7260365 C141.26026,36.9478956 141.337056,37.1185539 141.490651,37.2380165 C141.644246,37.3574791 141.849036,37.4172095 142.105027,37.4172095 L144.229744,37.4172095 Z M142.962594,32.5406 C142.518875,32.5406 142.147694,32.6643273 141.849037,32.9117855 C141.550381,33.1592438 141.401055,33.4792281 141.401055,33.871748 C141.401055,34.264268 141.550381,34.5842523 141.849037,34.8317105 C142.147694,35.0791688 142.518875,35.202896 142.962594,35.202896 C143.406312,35.202896 143.777494,35.0791688 144.07615,34.8317105 C144.374807,34.5842523 144.524133,34.264268 144.524133,33.871748 C144.524133,33.4792281 144.374807,33.1592438 144.07615,32.9117855 C143.777494,32.6643273 143.406312,32.5406 142.962594,32.5406 Z M143.116188,40.1307035 C143.764699,40.1307035 144.276674,40.0261753 144.652128,39.8171158 C145.027582,39.6080562 145.215306,39.354202 145.215306,39.0555455 C145.215306,38.8080873 145.11931,38.6203632 144.927317,38.4923675 C144.735323,38.3643719 144.408939,38.300375 143.948155,38.300375 L142.233022,38.300375 C141.840502,38.300375 141.537584,38.3707716 141.324258,38.5115668 C141.110932,38.652362 141.00427,38.8464858 141.00427,39.093944 C141.00427,39.4181997 141.183461,39.6720539 141.541849,39.8555143 C141.900237,40.0389747 142.425011,40.1307035 143.116188,40.1307035 Z M150.795888,31.7086325 C151.521196,31.7086325 152.1185,31.9176889 152.587818,32.335808 C153.057135,32.7539271 153.29179,33.3554976 153.29179,34.1405375 L153.29179,38.2363775 L152.26783,38.2363775 L152.26783,34.4989235 C152.26783,33.8333462 152.124904,33.3512365 151.839047,33.05258 C151.55319,32.7539235 151.171342,32.6045975 150.693492,32.6045975 C150.35217,32.6045975 150.032186,32.6792605 149.733529,32.8285888 C149.434873,32.977917 149.189551,33.2211051 148.997558,33.5581603 C148.805564,33.8952155 148.709569,34.319728 148.709569,34.8317105 L148.709569,38.2363775 L147.685609,38.2363775 L147.685609,31.8366275 L148.581574,31.8366275 L148.645572,32.8349885 C148.858898,32.4510016 149.153283,32.1672822 149.528737,31.9838218 C149.904191,31.8003614 150.32657,31.7086325 150.795888,31.7086325 Z" id="Content-Driven-Desig"></path>
            </g>
        </g>
    </g>
</svg>