<?xml version="1.0" encoding="UTF-8"?>
<svg width="158px" height="32px" viewBox="0 0 158 32" version="1.1" xmlns="http://www.w3.org/2000/svg" xmlns:xlink="http://www.w3.org/1999/xlink">
    <!-- Generator: Sketch 52.6 (67491) - http://www.bohemiancoding.com/sketch -->
    <title>Group</title>
    <desc>Created with Sketch.</desc>
    <g id="Page-1" stroke="none" stroke-width="1" fill="none" fill-rule="evenodd">
        <g id="iP8_Home" transform="translate(-109.000000, -78.000000)" fill="#FFFFFF">
            <g id="Group" transform="translate(108.500000, 78.000000)">
                <path d="M14.3028667,10.8592283 C14.3028667,13.0155783 12.5948667,14.6381783 9.28561667,14.6381783 L0.895066666,14.6381783 L0.895066666,0.419078319 L9.05076667,0.419078319 C12.5308167,0.419078319 13.7477667,1.93492832 13.7477667,3.72832832 C13.7477667,5.67117832 12.2532667,6.97352832 9.32831667,7.37917832 L9.39236667,7.37917832 C12.3386667,7.37917832 14.3028667,8.83097832 14.3028667,10.8592283 Z M9.17886667,4.85987832 C9.17886667,3.96317832 8.53836667,3.40807832 7.36411667,3.40807832 L5.46396667,3.40807832 L5.46396667,6.33302832 L7.36411667,6.33302832 C8.66646667,6.33302832 9.17886667,5.58577832 9.17886667,4.85987832 Z M9.73396667,9.98387832 C9.73396667,9.06582832 8.98671667,8.46802832 7.66301667,8.46802832 L5.46396667,8.46802832 L5.46396667,11.6491783 L7.62031667,11.6491783 C9.11481667,11.6491783 9.73396667,10.9446283 9.73396667,9.98387832 Z M25.6583556,10.2400783 L19.9365556,10.2400783 C19.9579056,11.4783783 20.4276056,12.4604783 21.4524056,12.4604783 C22.1569556,12.4604783 22.3918056,12.0334783 22.3918056,11.4997283 C22.3918056,11.3716283 22.3704556,11.2221783 22.3491056,11.0940783 L25.7010556,11.4143283 C25.7224056,11.6064783 25.7437556,11.8199783 25.7437556,11.9907783 C25.7437556,14.0617283 23.7795556,14.8516783 21.0254056,14.8516783 C17.0329556,14.8516783 15.4957556,12.6526283 15.4957556,9.66362832 C15.4957556,6.88812832 17.3959056,4.47557832 21.0894556,4.47557832 C24.1638556,4.47557832 25.8291556,6.14087832 25.8291556,8.72422832 C25.8291556,9.12987832 25.7437556,9.77037832 25.6583556,10.2400783 Z M21.2816056,6.99487832 C20.4062556,6.99487832 20.0006056,7.93427832 19.9365556,8.83097832 L22.1142556,8.83097832 C22.1569556,8.57477832 22.1783056,8.33992832 22.1783056,8.12642832 C22.1783056,7.44322832 21.9221056,6.99487832 21.2816056,6.99487832 Z M32.2100945,14.6381783 L27.8119945,14.6381783 L27.8119945,0.419078319 L32.2100945,0.419078319 L32.2100945,14.6381783 Z M39.2955834,3.68562832 L34.8974834,3.68562832 L34.8974834,0.419078319 L39.2955834,0.419078319 L39.2955834,3.68562832 Z M39.2955834,14.6381783 L34.8974834,14.6381783 L34.8974834,4.68907832 L39.2955834,4.68907832 L39.2955834,14.6381783 Z M53.2344223,14.6381783 L48.8363223,14.6381783 L48.8363223,8.87367832 C48.8363223,8.21182832 48.5587723,7.80617832 47.9182723,7.80617832 C46.7867223,7.80617832 46.3810723,9.32202832 46.3810723,11.6491783 L46.3810723,14.6381783 L41.9829723,14.6381783 L41.9829723,4.68907832 L45.1000723,4.68907832 L45.9540723,8.14777832 C46.4878223,5.73522832 47.6407223,4.47557832 49.6476223,4.47557832 C52.0815223,4.47557832 53.2344223,6.18357832 53.2344223,9.15122832 L53.2344223,14.6381783 Z M60.8750112,4.49692832 C61.7717112,4.49692832 62.5830112,4.60367832 63.2662112,4.81717832 C63.3516112,4.62502832 63.3943112,4.49692832 63.3943112,4.32612832 C63.3943112,3.85642832 63.1167612,3.64292832 62.6043612,3.64292832 L62.4122112,3.64292832 L62.9459612,2.23382832 C63.2448612,2.16977832 63.5224112,2.14842832 63.7572612,2.14842832 C64.9315112,2.14842832 65.4439112,2.76757832 65.4439112,3.55752832 C65.4439112,4.26207832 64.9955612,4.85987832 64.2696612,5.22282832 C65.2517612,5.58577832 65.9990112,6.56787832 65.9990112,7.82752832 C65.9990112,9.70632832 64.2696612,11.1367783 60.8750112,11.1367783 C59.9996612,11.1367783 59.2310612,11.0513783 58.5692112,10.8592283 C58.3770612,10.9873283 58.2276112,11.1581283 58.2276112,11.3929783 C58.2276112,11.8199783 58.6759612,11.9267283 59.1883612,11.9267283 L61.8144112,11.9267283 C65.2517612,11.9267283 66.9597612,12.7807283 66.9597612,15.0438283 C66.9597612,17.3496283 64.5045112,18.3530783 60.6401612,18.3530783 C57.2668612,18.3530783 54.6408112,17.7125783 54.6408112,16.2607783 C54.6408112,15.1719283 55.9431612,14.6168283 57.8219612,14.5741283 C56.2847612,14.3606283 55.2386112,13.8268783 55.2386112,12.5885783 C55.2386112,11.4783783 56.5409612,10.7951783 57.7152112,10.5603283 C56.4555612,9.96252832 55.7723612,9.02312832 55.7723612,7.82752832 C55.7723612,5.73522832 57.6511612,4.49692832 60.8750112,4.49692832 Z M61.7503612,14.7022283 L59.9783112,14.7022283 C58.9962112,14.7022283 58.5265112,15.0011283 58.5265112,15.5562283 C58.5265112,16.1326783 59.2097112,16.4742783 60.7896112,16.4742783 C62.4122112,16.4742783 63.1167612,16.0899783 63.1167612,15.5135283 C63.1167612,14.9797783 62.6684112,14.7022283 61.7503612,14.7022283 Z M62.0919612,7.82752832 C62.0919612,7.03757832 61.7290112,6.33302832 60.8963612,6.33302832 C60.0637112,6.33302832 59.6794112,7.10162832 59.6794112,7.82752832 C59.6794112,8.55342832 60.0637112,9.30067832 60.8750112,9.30067832 C61.6863112,9.30067832 62.0919612,8.61747832 62.0919612,7.82752832 Z M81.0480501,3.74967832 L76.5432001,3.74967832 L76.5432001,14.6381783 L71.9743001,14.6381783 L71.9743001,3.74967832 L67.4694501,3.74967832 L67.4694501,0.419078319 L81.0480501,0.419078319 L81.0480501,3.74967832 Z M93.983439,14.6381783 L89.585339,14.6381783 L89.585339,8.87367832 C89.585339,8.21182832 89.307789,7.80617832 88.667289,7.80617832 C87.535739,7.80617832 87.130089,9.32202832 87.130089,11.6491783 L87.130089,14.6381783 L82.731989,14.6381783 L82.731989,0.419078319 L87.130089,0.419078319 L87.130089,7.59267832 C87.599789,5.62847832 88.816739,4.47557832 90.332589,4.47557832 C92.830539,4.47557832 93.983439,6.18357832 93.983439,9.15122832 L93.983439,14.6381783 Z M107.516628,9.66362832 C107.516628,12.8234283 105.104078,14.8516783 101.666728,14.8516783 C98.2507279,14.8516783 95.8168279,12.8234283 95.8168279,9.66362832 C95.8168279,6.50382832 98.2507279,4.47557832 101.666728,4.47557832 C105.104078,4.47557832 107.516628,6.50382832 107.516628,9.66362832 Z M103.118528,9.66362832 C103.118528,7.76347832 102.520728,7.08027832 101.666728,7.08027832 C100.812728,7.08027832 100.214928,7.76347832 100.214928,9.66362832 C100.214928,11.5637783 100.812728,12.2469783 101.666728,12.2469783 C102.520728,12.2469783 103.118528,11.5637783 103.118528,9.66362832 Z M118.978867,10.2400783 L113.257067,10.2400783 C113.278417,11.4783783 113.748117,12.4604783 114.772917,12.4604783 C115.477467,12.4604783 115.712317,12.0334783 115.712317,11.4997283 C115.712317,11.3716283 115.690967,11.2221783 115.669617,11.0940783 L119.021567,11.4143283 C119.042917,11.6064783 119.064267,11.8199783 119.064267,11.9907783 C119.064267,14.0617283 117.100067,14.8516783 114.345917,14.8516783 C110.353467,14.8516783 108.816267,12.6526283 108.816267,9.66362832 C108.816267,6.88812832 110.716417,4.47557832 114.409967,4.47557832 C117.484367,4.47557832 119.149667,6.14087832 119.149667,8.72422832 C119.149667,9.12987832 119.064267,9.77037832 118.978867,10.2400783 Z M114.602117,6.99487832 C113.726767,6.99487832 113.321117,7.93427832 113.257067,8.83097832 L115.434767,8.83097832 C115.477467,8.57477832 115.498817,8.33992832 115.498817,8.12642832 C115.498817,7.44322832 115.242617,6.99487832 114.602117,6.99487832 Z M132.383956,14.6381783 L127.985856,14.6381783 L127.985856,8.87367832 C127.985856,8.21182832 127.708306,7.80617832 127.067806,7.80617832 C125.936256,7.80617832 125.530606,9.32202832 125.530606,11.6491783 L125.530606,14.6381783 L121.132506,14.6381783 L121.132506,4.68907832 L124.249606,4.68907832 L125.103606,8.14777832 C125.637356,5.73522832 126.790256,4.47557832 128.797156,4.47557832 C131.231056,4.47557832 132.383956,6.18357832 132.383956,9.15122832 L132.383956,14.6381783 Z M144.379945,10.2400783 L138.658145,10.2400783 C138.679495,11.4783783 139.149195,12.4604783 140.173995,12.4604783 C140.878545,12.4604783 141.113395,12.0334783 141.113395,11.4997283 C141.113395,11.3716283 141.092045,11.2221783 141.070695,11.0940783 L144.422645,11.4143283 C144.443995,11.6064783 144.465345,11.8199783 144.465345,11.9907783 C144.465345,14.0617283 142.501145,14.8516783 139.746995,14.8516783 C135.754545,14.8516783 134.217345,12.6526283 134.217345,9.66362832 C134.217345,6.88812832 136.117495,4.47557832 139.811045,4.47557832 C142.885445,4.47557832 144.550745,6.14087832 144.550745,8.72422832 C144.550745,9.12987832 144.465345,9.77037832 144.379945,10.2400783 Z M140.003195,6.99487832 C139.127845,6.99487832 138.722195,7.93427832 138.658145,8.83097832 L140.835845,8.83097832 C140.878545,8.57477832 140.899895,8.33992832 140.899895,8.12642832 C140.899895,7.44322832 140.643695,6.99487832 140.003195,6.99487832 Z M157.785033,14.6381783 L153.386933,14.6381783 L153.386933,8.87367832 C153.386933,8.21182832 153.109383,7.80617832 152.468883,7.80617832 C151.337333,7.80617832 150.931683,9.32202832 150.931683,11.6491783 L150.931683,14.6381783 L146.533583,14.6381783 L146.533583,4.68907832 L149.650683,4.68907832 L150.504683,8.14777832 C151.038433,5.73522832 152.191333,4.47557832 154.198233,4.47557832 C156.632133,4.47557832 157.785033,6.18357832 157.785033,9.15122832 L157.785033,14.6381783 Z" id="BelingThoenen"></path>
                <path d="M22.3660792,27.5140151 C22.1237613,28.1706184 21.7251153,28.6845591 21.1701292,29.0558526 C20.6151431,29.4271461 19.9741828,29.6127901 19.2472292,29.6127901 C18.5202755,29.6127901 17.8871319,29.4505959 17.3477792,29.1262026 C16.8084265,28.8018093 16.3921931,28.3406306 16.0990667,27.7426526 C15.8059402,27.1446746 15.6593792,26.4392275 15.6593792,25.6262901 C15.6593792,24.8211694 15.8059402,24.1176764 16.0990667,23.5157901 C16.3921931,22.9139037 16.8084265,22.4507709 17.3477792,22.1263776 C17.8871319,21.8019843 18.5124589,21.6397901 19.2237792,21.6397901 C19.9663662,21.6397901 20.5897391,21.7922136 21.0939167,22.0970651 C21.5980942,22.4019166 21.9752446,22.8513705 22.2253792,23.4454401 L21.2991042,23.8792651 C21.1271366,23.4258962 20.8770058,23.0858746 20.5487042,22.8591901 C20.2204025,22.6325056 19.802215,22.5191651 19.2941292,22.5191651 C18.7625932,22.5191651 18.2975062,22.6422764 17.8988542,22.8885026 C17.5002022,23.1347288 17.1914469,23.4923377 16.9725792,23.9613401 C16.7537114,24.4303424 16.6442792,24.9853202 16.6442792,25.6262901 C16.6442792,26.5955616 16.8768227,27.3557248 17.3419167,27.9068026 C17.8070107,28.4578803 18.4421085,28.7334151 19.2472292,28.7334151 C19.7709485,28.7334151 20.2243106,28.6005331 20.6073292,28.3347651 C20.9903477,28.0689971 21.2639283,27.6781677 21.4280792,27.1622651 L22.3660792,27.5140151 Z M26.4698292,23.5157901 C27.3531169,23.5157901 28.0468391,23.7854624 28.5510167,24.3248151 C29.0551942,24.8641678 29.3072792,25.610652 29.3072792,26.5642901 C29.3072792,27.5179282 29.0551942,28.2644124 28.5510167,28.8037651 C28.0468391,29.3431178 27.3531169,29.6127901 26.4698292,29.6127901 C25.5865414,29.6127901 24.8928192,29.3431178 24.3886417,28.8037651 C23.8844641,28.2644124 23.6323792,27.5179282 23.6323792,26.5642901 C23.6323792,25.610652 23.8844641,24.8641678 24.3886417,24.3248151 C24.8928192,23.7854624 25.5865414,23.5157901 26.4698292,23.5157901 Z M26.4698292,24.3248151 C25.8757595,24.3248151 25.4106725,24.5241381 25.0745542,24.9227901 C24.7384358,25.3214421 24.5703792,25.8686033 24.5703792,26.5642901 C24.5703792,27.2599769 24.7384358,27.8071381 25.0745542,28.2057901 C25.4106725,28.6044421 25.8757595,28.8037651 26.4698292,28.8037651 C27.0638988,28.8037651 27.5289858,28.6044421 27.8651042,28.2057901 C28.2012225,27.8071381 28.3692792,27.2599769 28.3692792,26.5642901 C28.3692792,25.8686033 28.2012225,25.3214421 27.8651042,24.9227901 C27.5289858,24.5241381 27.0638988,24.3248151 26.4698292,24.3248151 Z M33.9738292,23.5157901 C34.6382492,23.5157901 35.1854104,23.7072965 35.6153292,24.0903151 C36.045248,24.4733337 36.2602042,25.0244032 36.2602042,25.7435401 L36.2602042,29.4955401 L35.3222042,29.4955401 L35.3222042,26.0718401 C35.3222042,25.462137 35.1912763,25.0204998 34.9294167,24.7469151 C34.667557,24.4733304 34.3177647,24.3365401 33.8800292,24.3365401 C33.5673609,24.3365401 33.2742389,24.4049352 33.0006542,24.5417276 C32.7270695,24.6785199 32.5023425,24.9012927 32.3264667,25.2100526 C32.1505908,25.5188125 32.0626542,25.9076877 32.0626542,26.3766901 L32.0626542,29.4955401 L31.1246542,29.4955401 L31.1246542,23.6330401 L31.9454042,23.6330401 L32.0040292,24.5475901 C32.1994468,24.1958383 32.4691191,23.9359368 32.8130542,23.7678776 C33.1569892,23.5998184 33.5439104,23.5157901 33.9738292,23.5157901 Z M41.9702792,29.0851651 C41.5794439,29.4369169 41.0752739,29.6127901 40.4577542,29.6127901 C39.9809351,29.6127901 39.5920598,29.4838164 39.2911167,29.2258651 C38.9901735,28.9679138 38.8357959,28.5731761 38.8279792,28.0416401 L38.8279792,24.4420651 L37.6554792,24.4420651 L37.6554792,23.6330401 L38.8279792,23.6330401 L38.8279792,22.2260401 L39.7659792,21.9680901 L39.7659792,23.6330401 L41.9351042,23.6330401 L41.9351042,24.4420651 L39.7659792,24.4420651 L39.7659792,27.8774901 C39.7659792,28.1588915 39.8460992,28.3718935 40.0063417,28.5165026 C40.1665841,28.6611116 40.3795862,28.7334151 40.6453542,28.7334151 C41.020556,28.7334151 41.3527611,28.5888082 41.6419792,28.2995901 L41.9702792,29.0851651 Z M48.3252292,26.2594401 C48.3252292,26.4783079 48.309596,26.6971723 48.2783292,26.9160401 L43.8580042,26.9160401 C43.9127211,27.5101097 44.11009,27.9712884 44.4501167,28.2995901 C44.7901434,28.6278917 45.2298265,28.7920401 45.7691792,28.7920401 C46.199098,28.7920401 46.5567069,28.7177825 46.8420167,28.5692651 C47.1273264,28.4207477 47.320787,28.2057915 47.4224042,27.9243901 L48.2079792,28.3347651 C47.973478,28.7490505 47.6608145,29.0656223 47.2699792,29.2844901 C46.8791439,29.5033579 46.3788822,29.6127901 45.7691792,29.6127901 C44.8858914,29.6127901 44.1921692,29.3431178 43.6879917,28.8037651 C43.1838141,28.2644124 42.9317292,27.5179282 42.9317292,26.5642901 C42.9317292,25.610652 43.1720893,24.8641678 43.6528167,24.3248151 C44.1335441,23.7854624 44.8155414,23.5157901 45.6988292,23.5157901 C46.2459986,23.5157901 46.7189022,23.6369472 47.1175542,23.8792651 C47.5162062,24.121583 47.8171448,24.4498797 48.0203792,24.8641651 C48.2236135,25.2784505 48.3252292,25.7435375 48.3252292,26.2594401 Z M45.6988292,24.3365401 C45.1829266,24.3365401 44.7666932,24.4889636 44.4501167,24.7938151 C44.1335401,25.0986666 43.9400795,25.528579 43.8697292,26.0835651 L47.4224042,26.0835651 C47.3598705,25.5363957 47.180089,25.1084375 46.8830542,24.7996776 C46.5860193,24.4909177 46.1912816,24.3365401 45.6988292,24.3365401 Z M52.9566042,23.5157901 C53.6210242,23.5157901 54.1681854,23.7072965 54.5981042,24.0903151 C55.028023,24.4733337 55.2429792,25.0244032 55.2429792,25.7435401 L55.2429792,29.4955401 L54.3049792,29.4955401 L54.3049792,26.0718401 C54.3049792,25.462137 54.1740513,25.0204998 53.9121917,24.7469151 C53.650332,24.4733304 53.3005397,24.3365401 52.8628042,24.3365401 C52.5501359,24.3365401 52.2570139,24.4049352 51.9834292,24.5417276 C51.7098445,24.6785199 51.4851175,24.9012927 51.3092417,25.2100526 C51.1333658,25.5188125 51.0454292,25.9076877 51.0454292,26.3766901 L51.0454292,29.4955401 L50.1074292,29.4955401 L50.1074292,23.6330401 L50.9281792,23.6330401 L50.9868042,24.5475901 C51.1822218,24.1958383 51.4518941,23.9359368 51.7958292,23.7678776 C52.1397642,23.5998184 52.5266854,23.5157901 52.9566042,23.5157901 Z M60.9530542,29.0851651 C60.5622189,29.4369169 60.0580489,29.6127901 59.4405292,29.6127901 C58.9637101,29.6127901 58.5748348,29.4838164 58.2738917,29.2258651 C57.9729485,28.9679138 57.8185709,28.5731761 57.8107542,28.0416401 L57.8107542,24.4420651 L56.6382542,24.4420651 L56.6382542,23.6330401 L57.8107542,23.6330401 L57.8107542,22.2260401 L58.7487542,21.9680901 L58.7487542,23.6330401 L60.9178792,23.6330401 L60.9178792,24.4420651 L58.7487542,24.4420651 L58.7487542,27.8774901 C58.7487542,28.1588915 58.8288742,28.3718935 58.9891167,28.5165026 C59.1493591,28.6611116 59.3623612,28.7334151 59.6281292,28.7334151 C60.003331,28.7334151 60.3355361,28.5888082 60.6247542,28.2995901 L60.9530542,29.0851651 Z M68.9495042,21.7570401 C70.1689103,21.7570401 71.1225341,22.0931534 71.8104042,22.7653901 C72.4982743,23.4376268 72.8422042,24.3912506 72.8422042,25.6262901 C72.8422042,26.8613296 72.4982743,27.8149534 71.8104042,28.4871901 C71.1225341,29.1594268 70.1689103,29.4955401 68.9495042,29.4955401 L66.4520792,29.4955401 L66.4520792,21.7570401 L68.9495042,21.7570401 Z M69.0433042,28.6161651 C69.9265919,28.6161651 70.6164059,28.3523552 71.1127667,27.8247276 C71.6091275,27.2971 71.8573042,26.5642948 71.8573042,25.6262901 C71.8573042,24.6882854 71.6091275,23.9554802 71.1127667,23.4278526 C70.6164059,22.900225 69.9265919,22.6364151 69.0433042,22.6364151 L67.3900792,22.6364151 L67.3900792,28.6161651 L69.0433042,28.6161651 Z M77.4970292,23.5157901 C77.7784306,23.5157901 77.9933868,23.554873 78.1419042,23.6330401 L77.9543042,24.5475901 C77.7667032,24.4459729 77.5204807,24.3951651 77.2156292,24.3951651 C76.9654946,24.3951651 76.7212262,24.4674685 76.4828167,24.6120776 C76.2444071,24.7566866 76.0489924,24.9755511 75.8965667,25.2686776 C75.7441409,25.5618041 75.6679292,25.9155047 75.6679292,26.3297901 L75.6679292,29.4955401 L74.7299292,29.4955401 L74.7299292,23.6330401 L75.4920542,23.6330401 L75.6210292,24.5944901 C75.9493308,23.8753532 76.5746579,23.5157901 77.4970292,23.5157901 Z M79.9827292,22.5074401 C79.7716781,22.5074401 79.6016673,22.4429532 79.4726917,22.3139776 C79.343716,22.1850019 79.2792292,22.0149911 79.2792292,21.8039401 C79.2792292,21.592889 79.343716,21.4228782 79.4726917,21.2939026 C79.6016673,21.1649269 79.7716781,21.1004401 79.9827292,21.1004401 C80.1937802,21.1004401 80.363791,21.1649269 80.4927667,21.2939026 C80.6217423,21.4228782 80.6862292,21.592889 80.6862292,21.8039401 C80.6862292,22.0149911 80.6217423,22.1850019 80.4927667,22.3139776 C80.363791,22.4429532 80.1937802,22.5074401 79.9827292,22.5074401 Z M80.4517292,29.4955401 L79.5137292,29.4955401 L79.5137292,23.6330401 L80.4517292,23.6330401 L80.4517292,29.4955401 Z M87.4984542,23.6330401 L85.0596542,29.4955401 L84.1216542,29.4955401 L81.6828542,23.6330401 L82.7498292,23.6330401 L84.6023792,28.5458151 L86.5135542,23.6330401 L87.4984542,23.6330401 Z M93.7596042,26.2594401 C93.7596042,26.4783079 93.743971,26.6971723 93.7127042,26.9160401 L89.2923792,26.9160401 C89.3470961,27.5101097 89.544465,27.9712884 89.8844917,28.2995901 C90.2245184,28.6278917 90.6642015,28.7920401 91.2035542,28.7920401 C91.633473,28.7920401 91.9910819,28.7177825 92.2763917,28.5692651 C92.5617014,28.4207477 92.755162,28.2057915 92.8567792,27.9243901 L93.6423542,28.3347651 C93.407853,28.7490505 93.0951895,29.0656223 92.7043542,29.2844901 C92.3135189,29.5033579 91.8132572,29.6127901 91.2035542,29.6127901 C90.3202664,29.6127901 89.6265442,29.3431178 89.1223667,28.8037651 C88.6181891,28.2644124 88.3661042,27.5179282 88.3661042,26.5642901 C88.3661042,25.610652 88.6064643,24.8641678 89.0871917,24.3248151 C89.5679191,23.7854624 90.2499164,23.5157901 91.1332042,23.5157901 C91.6803736,23.5157901 92.1532772,23.6369472 92.5519292,23.8792651 C92.9505812,24.121583 93.2515198,24.4498797 93.4547542,24.8641651 C93.6579885,25.2784505 93.7596042,25.7435375 93.7596042,26.2594401 Z M91.1332042,24.3365401 C90.6173016,24.3365401 90.2010682,24.4889636 89.8844917,24.7938151 C89.5679151,25.0986666 89.3744545,25.528579 89.3041042,26.0835651 L92.8567792,26.0835651 C92.7942455,25.5363957 92.614464,25.1084375 92.3174292,24.7996776 C92.0203943,24.4909177 91.6256566,24.3365401 91.1332042,24.3365401 Z M98.3909792,23.5157901 C99.0553992,23.5157901 99.6025604,23.7072965 100.032479,24.0903151 C100.462398,24.4733337 100.677354,25.0244032 100.677354,25.7435401 L100.677354,29.4955401 L99.7393542,29.4955401 L99.7393542,26.0718401 C99.7393542,25.462137 99.6084263,25.0204998 99.3465667,24.7469151 C99.084707,24.4733304 98.7349147,24.3365401 98.2971792,24.3365401 C97.9845109,24.3365401 97.6913889,24.4049352 97.4178042,24.5417276 C97.1442195,24.6785199 96.9194925,24.9012927 96.7436167,25.2100526 C96.5677408,25.5188125 96.4798042,25.9076877 96.4798042,26.3766901 L96.4798042,29.4955401 L95.5418042,29.4955401 L95.5418042,23.6330401 L96.3625542,23.6330401 L96.4211792,24.5475901 C96.6165968,24.1958383 96.8862691,23.9359368 97.2302042,23.7678776 C97.5741392,23.5998184 97.9610604,23.5157901 98.3909792,23.5157901 Z M109.471104,21.7570401 C110.69051,21.7570401 111.644134,22.0931534 112.332004,22.7653901 C113.019874,23.4376268 113.363804,24.3912506 113.363804,25.6262901 C113.363804,26.8613296 113.019874,27.8149534 112.332004,28.4871901 C111.644134,29.1594268 110.69051,29.4955401 109.471104,29.4955401 L106.973679,29.4955401 L106.973679,21.7570401 L109.471104,21.7570401 Z M109.564904,28.6161651 C110.448192,28.6161651 111.138006,28.3523552 111.634367,27.8247276 C112.130727,27.2971 112.378904,26.5642948 112.378904,25.6262901 C112.378904,24.6882854 112.130727,23.9554802 111.634367,23.4278526 C111.138006,22.900225 110.448192,22.6364151 109.564904,22.6364151 L107.911679,22.6364151 L107.911679,28.6161651 L109.564904,28.6161651 Z M120.281554,26.2594401 C120.281554,26.4783079 120.265921,26.6971723 120.234654,26.9160401 L115.814329,26.9160401 C115.869046,27.5101097 116.066415,27.9712884 116.406442,28.2995901 C116.746468,28.6278917 117.186151,28.7920401 117.725504,28.7920401 C118.155423,28.7920401 118.513032,28.7177825 118.798342,28.5692651 C119.083651,28.4207477 119.277112,28.2057915 119.378729,27.9243901 L120.164304,28.3347651 C119.929803,28.7490505 119.617139,29.0656223 119.226304,29.2844901 C118.835469,29.5033579 118.335207,29.6127901 117.725504,29.6127901 C116.842216,29.6127901 116.148494,29.3431178 115.644317,28.8037651 C115.140139,28.2644124 114.888054,27.5179282 114.888054,26.5642901 C114.888054,25.610652 115.128414,24.8641678 115.609142,24.3248151 C116.089869,23.7854624 116.771866,23.5157901 117.655154,23.5157901 C118.202324,23.5157901 118.675227,23.6369472 119.073879,23.8792651 C119.472531,24.121583 119.77347,24.4498797 119.976704,24.8641651 C120.179939,25.2784505 120.281554,25.7435375 120.281554,26.2594401 Z M117.655154,24.3365401 C117.139252,24.3365401 116.723018,24.4889636 116.406442,24.7938151 C116.089865,25.0986666 115.896405,25.528579 115.826054,26.0835651 L119.378729,26.0835651 C119.316196,25.5363957 119.136414,25.1084375 118.839379,24.7996776 C118.542344,24.4909177 118.147607,24.3365401 117.655154,24.3365401 Z M124.057004,29.6127901 C123.494201,29.6127901 122.986123,29.5014037 122.532754,29.2786276 C122.079385,29.0558515 121.74718,28.7256006 121.536129,28.2878651 L122.298254,27.7602401 C122.431138,28.1041751 122.661728,28.3621226 122.990029,28.5340901 C123.318331,28.7060576 123.705252,28.7920401 124.150804,28.7920401 C124.61199,28.7920401 124.963736,28.7099659 125.206054,28.5458151 C125.448372,28.3816643 125.569529,28.1745247 125.569529,27.9243901 C125.569529,27.6977056 125.456189,27.5159699 125.229504,27.3791776 C125.00282,27.2423852 124.604174,27.1231823 124.033554,27.0215651 C123.470751,26.9199479 123.025206,26.7968366 122.696904,26.6522276 C122.368603,26.5076185 122.130197,26.3239287 121.981679,26.1011526 C121.833162,25.8783765 121.758904,25.6028417 121.758904,25.2745401 C121.758904,24.9540552 121.852703,24.6609331 122.040304,24.3951651 C122.227905,24.1293971 122.497577,23.9163951 122.849329,23.7561526 C123.201081,23.5959101 123.607544,23.5157901 124.068729,23.5157901 C124.694066,23.5157901 125.196281,23.6310848 125.575392,23.8616776 C125.954502,24.0922704 126.226128,24.445971 126.390279,24.9227901 L125.592979,25.3917901 C125.467912,25.0165882 125.27836,24.7469159 125.024317,24.5827651 C124.770274,24.4186143 124.451748,24.3365401 124.068729,24.3365401 C123.685711,24.3365401 123.361322,24.4225226 123.095554,24.5944901 C122.829786,24.7664576 122.696904,24.9657806 122.696904,25.1924651 C122.696904,25.4504164 122.812199,25.6497394 123.042792,25.7904401 C123.273384,25.9311408 123.68571,26.0522979 124.279779,26.1539151 C125.092717,26.2867991 125.667236,26.4861221 126.003354,26.7518901 C126.339473,27.0176581 126.507529,27.3928543 126.507529,27.8774901 C126.507529,28.2136084 126.407868,28.5125929 126.208542,28.7744526 C126.009216,29.0363122 125.72391,29.2414977 125.352617,29.3900151 C124.981323,29.5385325 124.549457,29.6127901 124.057004,29.6127901 Z M128.711829,22.5074401 C128.500778,22.5074401 128.330767,22.4429532 128.201792,22.3139776 C128.072816,22.1850019 128.008329,22.0149911 128.008329,21.8039401 C128.008329,21.592889 128.072816,21.4228782 128.201792,21.2939026 C128.330767,21.1649269 128.500778,21.1004401 128.711829,21.1004401 C128.92288,21.1004401 129.092891,21.1649269 129.221867,21.2939026 C129.350842,21.4228782 129.415329,21.592889 129.415329,21.8039401 C129.415329,22.0149911 129.350842,22.1850019 129.221867,22.3139776 C129.092891,22.4429532 128.92288,22.5074401 128.711829,22.5074401 Z M129.180829,29.4955401 L128.242829,29.4955401 L128.242829,23.6330401 L129.180829,23.6330401 L129.180829,29.4955401 Z M134.632954,28.7451401 C135.18794,28.7451401 135.621761,28.8702055 135.934429,29.1203401 C136.247097,29.3704747 136.403429,29.7104963 136.403429,30.1404151 C136.403429,30.515617 136.274455,30.8458678 136.016504,31.1311776 C135.758553,31.4164874 135.408761,31.6353518 134.967117,31.7877776 C134.525473,31.9402034 134.03889,32.0164151 133.507354,32.0164151 C132.61625,32.0164151 131.944023,31.8737624 131.490654,31.5884526 C131.037285,31.3031428 130.810604,30.9299007 130.810604,30.4687151 C130.810604,30.2029471 130.902449,29.9684494 131.086142,29.7652151 C131.269834,29.5619807 131.521919,29.4173739 131.842404,29.3313901 C131.600086,29.2141395 131.406626,29.0656243 131.262017,28.8858401 C131.117408,28.7060559 131.045104,28.495008 131.045104,28.2526901 C131.045104,27.963472 131.12327,27.7231119 131.279604,27.5316026 C131.435938,27.3400933 131.650894,27.1974406 131.924479,27.1036401 C131.643078,26.9316726 131.430076,26.7069456 131.285467,26.4294526 C131.140858,26.1519595 131.068554,25.8412501 131.068554,25.4973151 C131.068554,25.1142965 131.17017,24.7723208 131.373404,24.4713776 C131.576639,24.1704344 131.861944,23.9359368 132.229329,23.7678776 C132.596714,23.5998184 133.010994,23.5157901 133.472179,23.5157901 C133.909915,23.5157901 134.308561,23.593956 134.668129,23.7502901 C134.886997,22.9529861 135.438066,22.5543401 136.321354,22.5543401 L136.532404,23.3750901 C135.766367,23.3750901 135.30128,23.5900463 135.137129,24.0199651 C135.37163,24.1997493 135.553366,24.4147055 135.682342,24.6648401 C135.811317,24.9149747 135.875804,25.1924636 135.875804,25.4973151 C135.875804,25.8803337 135.774189,26.2223094 135.570954,26.5232526 C135.36772,26.8241958 135.082414,27.0586934 134.715029,27.2267526 C134.347644,27.3948118 133.933365,27.4788401 133.472179,27.4788401 C133.128244,27.4788401 132.827305,27.4436654 132.569354,27.3733151 C132.334853,27.428032 132.166796,27.5140145 132.065179,27.6312651 C131.963562,27.7485157 131.912754,27.9087557 131.912754,28.1119901 C131.912754,28.3152244 131.983103,28.4715562 132.123804,28.5809901 C132.264505,28.690424 132.452103,28.7451401 132.686604,28.7451401 L134.632954,28.7451401 Z M133.472179,24.2779151 C133.06571,24.2779151 132.725689,24.3912556 132.452104,24.6179401 C132.178519,24.8446246 132.041729,25.1377466 132.041729,25.4973151 C132.041729,25.8568836 132.178519,26.1500056 132.452104,26.3766901 C132.725689,26.6033746 133.06571,26.7167151 133.472179,26.7167151 C133.878648,26.7167151 134.218669,26.6033746 134.492254,26.3766901 C134.765839,26.1500056 134.902629,25.8568836 134.902629,25.4973151 C134.902629,25.1377466 134.765839,24.8446246 134.492254,24.6179401 C134.218669,24.3912556 133.878648,24.2779151 133.472179,24.2779151 Z M133.612879,31.2308401 C134.206949,31.2308401 134.675944,31.1350869 135.019879,30.9435776 C135.363814,30.7520683 135.535779,30.5195248 135.535779,30.2459401 C135.535779,30.0192556 135.447843,29.8472907 135.271967,29.7300401 C135.096091,29.6127895 134.797106,29.5541651 134.375004,29.5541651 L132.803854,29.5541651 C132.444286,29.5541651 132.166797,29.6186519 131.971379,29.7476276 C131.775962,29.8766032 131.678254,30.0544306 131.678254,30.2811151 C131.678254,30.5781499 131.842403,30.8106934 132.170704,30.9787526 C132.499006,31.1468118 132.979726,31.2308401 133.612879,31.2308401 Z M140.647879,23.5157901 C141.312299,23.5157901 141.85946,23.7072965 142.289379,24.0903151 C142.719298,24.4733337 142.934254,25.0244032 142.934254,25.7435401 L142.934254,29.4955401 L141.996254,29.4955401 L141.996254,26.0718401 C141.996254,25.462137 141.865326,25.0204998 141.603467,24.7469151 C141.341607,24.4733304 140.991815,24.3365401 140.554079,24.3365401 C140.241411,24.3365401 139.948289,24.4049352 139.674704,24.5417276 C139.401119,24.6785199 139.176393,24.9012927 139.000517,25.2100526 C138.824641,25.5188125 138.736704,25.9076877 138.736704,26.3766901 L138.736704,29.4955401 L137.798704,29.4955401 L137.798704,23.6330401 L138.619454,23.6330401 L138.678079,24.5475901 C138.873497,24.1958383 139.143169,23.9359368 139.487104,23.7678776 C139.831039,23.5998184 140.21796,23.5157901 140.647879,23.5157901 Z" id="Content-Driven-Desig"></path>
            </g>
        </g>
    </g>
</svg>