<?xml version="1.0" encoding="UTF-8"?>
<svg width="157px" height="37px" viewBox="0 0 157 37" version="1.1" xmlns="http://www.w3.org/2000/svg" xmlns:xlink="http://www.w3.org/1999/xlink">
    <!-- Generator: Sketch 52.6 (67491) - http://www.bohemiancoding.com/sketch -->
    <title>Group 20</title>
    <desc>Created with Sketch.</desc>
    <g id="Page-1" stroke="none" stroke-width="1" fill="none" fill-rule="evenodd">
        <g id="iP8_Home" transform="translate(-109.000000, -75.000000)" fill="#FFFFFF">
            <g id="Group-20" transform="translate(109.000000, 74.413878)">
                <path d="M10.9810008,13.808259 C10.9810008,16.964209 8.89360084,18.852809 5.78735084,18.852809 L0.14640084,18.852809 L0.14640084,1.656609 L5.43945084,1.656609 C8.81905084,1.656609 10.5834008,3.371259 10.5834008,6.303559 C10.5834008,7.819409 9.86275084,9.186159 8.76935084,9.782559 C10.2106508,10.478359 10.9810008,11.745709 10.9810008,13.808259 Z M5.29035084,11.522059 L3.55085084,11.522059 L3.55085084,15.845959 L5.29035084,15.845959 C6.65710084,15.845959 7.42745084,14.951359 7.42745084,13.659159 C7.42745084,12.317259 6.65710084,11.522059 5.29035084,11.522059 Z M5.14125084,4.638609 L3.55085084,4.638609 L3.55085084,8.589759 L5.14125084,8.589759 C6.35890084,8.589759 7.05470084,7.869109 7.05470084,6.601759 C7.05470084,5.334409 6.38375084,4.638609 5.14125084,4.638609 Z M25.4458008,13.286409 L15.9531008,13.286409 C16.1270508,15.050759 17.3695508,16.119309 19.2581508,16.119309 C20.9479508,16.119309 21.9171008,15.224709 22.6129008,14.131309 L25.0730508,15.622309 C24.2778508,17.287259 22.4886508,19.076459 19.2581508,19.076459 C15.2324508,19.076459 12.4492508,16.467209 12.4492508,12.242709 C12.4492508,8.266709 15.1330508,5.334409 18.9848008,5.334409 C22.9856508,5.334409 25.4955008,7.943659 25.4955008,11.919659 C25.4955008,12.242709 25.4955008,12.714859 25.4458008,13.286409 Z M18.9599508,8.142459 C17.2701508,8.142459 16.2016008,9.260709 16.0276508,10.776559 L22.0413508,10.776559 C21.8922508,9.285559 20.7740008,8.142459 18.9599508,8.142459 Z M30.5421508,0.687458997 L30.5421508,18.852809 L27.2122508,18.852809 L27.2122508,0.687458997 L30.5421508,0.687458997 Z M36.1603508,5.558059 L36.1603508,18.852809 L32.8304508,18.852809 L32.8304508,5.558059 L36.1603508,5.558059 Z M34.4954008,4.713159 C33.4020008,4.713159 32.5074008,3.843409 32.5074008,2.750009 C32.5074008,1.631759 33.4020008,0.737158997 34.4954008,0.737158997 C35.6136508,0.737158997 36.4834008,1.631759 36.4834008,2.750009 C36.4834008,3.843409 35.6136508,4.713159 34.4954008,4.713159 Z M45.4066508,18.852809 L45.4066508,10.478359 C45.4066508,9.186159 44.8351008,8.366109 43.6174508,8.366109 C42.4246508,8.366109 41.7785508,9.211009 41.7785508,10.478359 L41.7785508,18.852809 L38.4486508,18.852809 L38.4486508,5.558059 L41.7785508,5.558059 L41.7785508,6.552059 C42.1016008,6.154459 42.9465008,5.408959 44.5866008,5.408959 C47.6928508,5.408959 48.7365508,7.521209 48.7365508,10.080759 L48.7365508,18.852809 L45.4066508,18.852809 Z M61.2133508,6.800559 L61.2133508,5.558059 L64.3444508,5.558059 L64.3444508,16.616309 C64.3444508,21.611159 61.3624508,23.400359 57.2373508,23.400359 C55.1499508,23.400359 53.3856008,22.828809 52.2922008,22.207559 L53.3607508,19.573459 C54.1559508,20.020759 55.5972508,20.542609 57.2622008,20.542609 C59.3496008,20.542609 61.0145508,19.697709 61.0394008,17.759409 L61.0394008,17.585459 C60.4678508,18.256409 59.2502008,19.076459 57.3616008,19.076459 C53.2613508,19.076459 50.4781508,16.293259 50.4781508,12.242709 C50.4781508,8.390959 53.2613508,5.334409 57.2373508,5.334409 C58.9520008,5.334409 60.3684508,5.905959 61.2133508,6.800559 Z M53.8080508,12.217859 C53.8080508,14.454359 55.3239008,16.119309 57.4858508,16.119309 C59.7223508,16.119309 61.1388008,14.429509 61.1388008,12.217859 C61.1388008,9.981359 59.6726508,8.291559 57.4858508,8.291559 C55.2493508,8.291559 53.8080508,9.981359 53.8080508,12.217859 Z M75.7775508,4.887109 L72.6464508,4.887109 L72.6464508,18.852809 L69.1923008,18.852809 L69.1923008,4.887109 L66.0612008,4.887109 L66.0612008,1.656609 L75.7775508,1.656609 L75.7775508,4.887109 Z M84.4771508,18.852809 L84.4771508,10.478359 C84.4771508,9.186159 83.9056008,8.366109 82.6879508,8.366109 C81.4951508,8.366109 80.8490508,9.211009 80.8490508,10.478359 L80.8490508,18.852809 L77.5191508,18.852809 L77.5191508,0.687458997 L80.8490508,0.687458997 L80.8490508,6.552059 C81.1969508,6.154459 82.0170008,5.408959 83.6571008,5.408959 C86.7633508,5.408959 87.8070508,7.521209 87.8070508,10.080759 L87.8070508,18.852809 L84.4771508,18.852809 Z M92.8785508,12.217859 C92.8785508,14.454359 94.3695508,16.069609 96.5066508,16.069609 C98.6934508,16.069609 100.109901,14.429509 100.109901,12.217859 C100.109901,10.006209 98.6189008,8.341259 96.4818008,8.341259 C94.2950008,8.341259 92.8785508,9.981359 92.8785508,12.217859 Z M89.5486508,12.242709 C89.5486508,8.291559 92.4809508,5.334409 96.4818008,5.334409 C100.681451,5.334409 103.439801,8.266709 103.439801,12.193009 C103.439801,16.094459 100.582051,19.076459 96.4818008,19.076459 C92.3318508,19.076459 89.5486508,16.169009 89.5486508,12.242709 Z M117.730651,13.286409 L108.237951,13.286409 C108.411901,15.050759 109.654401,16.119309 111.543001,16.119309 C113.232801,16.119309 114.201951,15.224709 114.897751,14.131309 L117.357901,15.622309 C116.562701,17.287259 114.773501,19.076459 111.543001,19.076459 C107.517301,19.076459 104.734101,16.467209 104.734101,12.242709 C104.734101,8.266709 107.417901,5.334409 111.269651,5.334409 C115.270501,5.334409 117.780351,7.943659 117.780351,11.919659 C117.780351,12.242709 117.780351,12.714859 117.730651,13.286409 Z M111.244801,8.142459 C109.555001,8.142459 108.486451,9.260709 108.312501,10.776559 L114.326201,10.776559 C114.177101,9.285559 113.058851,8.142459 111.244801,8.142459 Z M126.455101,18.852809 L126.455101,10.478359 C126.455101,9.186159 125.883551,8.366109 124.665901,8.366109 C123.473101,8.366109 122.827001,9.211009 122.827001,10.478359 L122.827001,18.852809 L119.497101,18.852809 L119.497101,5.558059 L122.827001,5.558059 L122.827001,6.552059 C123.150051,6.154459 123.994951,5.408959 125.635051,5.408959 C128.741301,5.408959 129.785001,7.521209 129.785001,10.080759 L129.785001,18.852809 L126.455101,18.852809 Z M144.523151,13.286409 L135.030451,13.286409 C135.204401,15.050759 136.446901,16.119309 138.335501,16.119309 C140.025301,16.119309 140.994451,15.224709 141.690251,14.131309 L144.150401,15.622309 C143.355201,17.287259 141.566001,19.076459 138.335501,19.076459 C134.309801,19.076459 131.526601,16.467209 131.526601,12.242709 C131.526601,8.266709 134.210401,5.334409 138.062151,5.334409 C142.063001,5.334409 144.572851,7.943659 144.572851,11.919659 C144.572851,12.242709 144.572851,12.714859 144.523151,13.286409 Z M138.037301,8.142459 C136.347501,8.142459 135.278951,9.260709 135.105001,10.776559 L141.118701,10.776559 C140.969601,9.285559 139.851351,8.142459 138.037301,8.142459 Z M153.247601,18.852809 L153.247601,10.478359 C153.247601,9.186159 152.676051,8.366109 151.458401,8.366109 C150.265601,8.366109 149.619501,9.211009 149.619501,10.478359 L149.619501,18.852809 L146.289601,18.852809 L146.289601,5.558059 L149.619501,5.558059 L149.619501,6.552059 C149.942551,6.154459 150.787451,5.408959 152.427551,5.408959 C155.533801,5.408959 156.577501,7.521209 156.577501,10.080759 L156.577501,18.852809 L153.247601,18.852809 Z" id="BelingThoenen"></path>
                <path d="M19.7023883,32.352134 C19.4528371,33.0283374 19.0422912,33.5576196 18.4707383,33.9399965 C17.8991855,34.3223734 17.2390921,34.513559 16.4904383,34.513559 C15.7417846,34.513559 15.0897411,34.3465232 14.5342883,34.0124465 C13.9788356,33.6783698 13.5501773,33.2034246 13.2483008,32.5875965 C12.9464243,31.9717684 12.7954883,31.2452632 12.7954883,30.408059 C12.7954883,29.5789049 12.9464243,28.8544121 13.2483008,28.234559 C13.5501773,27.6147059 13.9788356,27.1377482 14.5342883,26.8036715 C15.0897411,26.4695948 15.7337347,26.302559 16.4662883,26.302559 C17.2310422,26.302559 17.8730232,26.4595324 18.3922508,26.773484 C18.9114784,27.0874356 19.2998871,27.5503059 19.5574883,28.162109 L18.6035633,28.608884 C18.4264625,28.1419817 18.168865,27.7918102 17.8307633,27.558359 C17.4926616,27.3249078 17.061991,27.208184 16.5387383,27.208184 C15.9913356,27.208184 15.5123654,27.3349702 15.1018133,27.5885465 C14.6912613,27.8421228 14.3732895,28.2104066 14.1478883,28.693409 C13.9224872,29.1764114 13.8097883,29.7479557 13.8097883,30.408059 C13.8097883,31.406264 14.0492734,32.1891187 14.5282508,32.7566465 C15.0072282,33.3241743 15.6612842,33.607934 16.4904383,33.607934 C17.029791,33.607934 17.4966864,33.4710854 17.8911383,33.197384 C18.2855903,32.9236826 18.5673375,32.5211867 18.7363883,31.989884 L19.7023883,32.352134 Z M23.9286383,28.234559 C24.8382929,28.234559 25.5527232,28.5122812 26.0719508,29.067734 C26.5911784,29.6231868 26.8507883,30.3919541 26.8507883,31.374059 C26.8507883,32.3561639 26.5911784,33.1249312 26.0719508,33.680384 C25.5527232,34.2358368 24.8382929,34.513559 23.9286383,34.513559 C23.0189838,34.513559 22.3045534,34.2358368 21.7853258,33.680384 C21.2660982,33.1249312 21.0064883,32.3561639 21.0064883,31.374059 C21.0064883,30.3919541 21.2660982,29.6231868 21.7853258,29.067734 C22.3045534,28.5122812 23.0189838,28.234559 23.9286383,28.234559 Z M23.9286383,29.067734 C23.3168353,29.067734 22.8378651,29.2730069 22.4917133,29.683559 C22.1455616,30.0941111 21.9724883,30.6576054 21.9724883,31.374059 C21.9724883,32.0905126 22.1455616,32.6540069 22.4917133,33.064559 C22.8378651,33.4751111 23.3168353,33.680384 23.9286383,33.680384 C24.5404414,33.680384 25.0194116,33.4751111 25.3655633,33.064559 C25.7117151,32.6540069 25.8847883,32.0905126 25.8847883,31.374059 C25.8847883,30.6576054 25.7117151,30.0941111 25.3655633,29.683559 C25.0194116,29.2730069 24.5404414,29.067734 23.9286383,29.067734 Z M31.6566383,28.234559 C32.3408918,28.234559 32.9043861,28.431782 33.3471383,28.826234 C33.7898906,29.220686 34.0112633,29.7882053 34.0112633,30.528809 L34.0112633,34.392809 L33.0452633,34.392809 L33.0452633,30.866909 C33.0452633,30.2390059 32.9104272,29.7841854 32.6407508,29.502434 C32.3710745,29.2206826 32.0108406,29.079809 31.5600383,29.079809 C31.2380367,29.079809 30.9361647,29.1502458 30.6544133,29.2911215 C30.3726619,29.4319972 30.1412267,29.6614199 29.9601008,29.9793965 C29.7789749,30.2973731 29.6884133,30.6978566 29.6884133,31.180859 L29.6884133,34.392809 L28.7224133,34.392809 L28.7224133,28.355309 L29.5676633,28.355309 L29.6280383,29.297159 C29.8292893,28.9349072 30.1070116,28.6672474 30.4612133,28.4941715 C30.8154151,28.3210956 31.2138861,28.234559 31.6566383,28.234559 Z M39.8917883,33.970184 C39.4892863,34.3324358 38.9700665,34.513559 38.3341133,34.513559 C37.8430609,34.513559 37.4425774,34.3807353 37.1326508,34.115084 C36.8227243,33.8494327 36.6637384,33.4429117 36.6556883,32.895509 L36.6556883,29.188484 L35.4481883,29.188484 L35.4481883,28.355309 L36.6556883,28.355309 L36.6556883,26.906309 L37.6216883,26.640659 L37.6216883,28.355309 L39.8555633,28.355309 L39.8555633,29.188484 L37.6216883,29.188484 L37.6216883,32.726459 C37.6216883,33.0162604 37.7042,33.2356208 37.8692258,33.3845465 C38.0342517,33.5334722 38.253612,33.607934 38.5273133,33.607934 C38.9137153,33.607934 39.2558369,33.4590105 39.5536883,33.161159 L39.8917883,33.970184 Z M46.4364383,31.060109 C46.4364383,31.2855101 46.4203385,31.5109079 46.3881383,31.736309 L41.8358633,31.736309 C41.8922136,32.3481121 42.0954741,32.8230573 42.4456508,33.161159 C42.7958276,33.4992607 43.2486356,33.668309 43.8040883,33.668309 C44.2468406,33.668309 44.6151244,33.5918348 44.9089508,33.438884 C45.2027773,33.2859332 45.4020128,33.0645604 45.5066633,32.774759 L46.3156883,33.197384 C46.0741871,33.6240361 45.7521904,33.9500579 45.3496883,34.175459 C44.9471863,34.4008601 44.4319915,34.513559 43.8040883,34.513559 C42.8944338,34.513559 42.1800034,34.2358368 41.6607758,33.680384 C41.1415482,33.1249312 40.8819383,32.3561639 40.8819383,31.374059 C40.8819383,30.3919541 41.1294734,29.6231868 41.6245508,29.067734 C42.1196283,28.5122812 42.8219838,28.234559 43.7316383,28.234559 C44.2951412,28.234559 44.7821613,28.3593327 45.1927133,28.608884 C45.6032654,28.8584352 45.9131873,29.1965319 46.1224883,29.623184 C46.3317894,30.0498361 46.4364383,30.5288063 46.4364383,31.060109 Z M43.7316383,29.079809 C43.2003357,29.079809 42.7716775,29.2367824 42.4456508,29.550734 C42.1196242,29.8646856 41.9203887,30.3074311 41.8479383,30.878984 L45.5066633,30.878984 C45.442263,30.3154812 45.2571149,29.8747481 44.9512133,29.5567715 C44.6453118,29.2387949 44.2387909,29.079809 43.7316383,29.079809 Z M51.2060633,28.234559 C51.8903168,28.234559 52.4538111,28.431782 52.8965633,28.826234 C53.3393156,29.220686 53.5606883,29.7882053 53.5606883,30.528809 L53.5606883,34.392809 L52.5946883,34.392809 L52.5946883,30.866909 C52.5946883,30.2390059 52.4598522,29.7841854 52.1901758,29.502434 C51.9204995,29.2206826 51.5602656,29.079809 51.1094633,29.079809 C50.7874617,29.079809 50.4855897,29.1502458 50.2038383,29.2911215 C49.9220869,29.4319972 49.6906517,29.6614199 49.5095258,29.9793965 C49.3283999,30.2973731 49.2378383,30.6978566 49.2378383,31.180859 L49.2378383,34.392809 L48.2718383,34.392809 L48.2718383,28.355309 L49.1170883,28.355309 L49.1774633,29.297159 C49.3787143,28.9349072 49.6564366,28.6672474 50.0106383,28.4941715 C50.3648401,28.3210956 50.7633111,28.234559 51.2060633,28.234559 Z M59.4412133,33.970184 C59.0387113,34.3324358 58.5194915,34.513559 57.8835383,34.513559 C57.3924859,34.513559 56.9920024,34.3807353 56.6820758,34.115084 C56.3721493,33.8494327 56.2131634,33.4429117 56.2051133,32.895509 L56.2051133,29.188484 L54.9976133,29.188484 L54.9976133,28.355309 L56.2051133,28.355309 L56.2051133,26.906309 L57.1711133,26.640659 L57.1711133,28.355309 L59.4049883,28.355309 L59.4049883,29.188484 L57.1711133,29.188484 L57.1711133,32.726459 C57.1711133,33.0162604 57.253625,33.2356208 57.4186508,33.3845465 C57.5836767,33.5334722 57.803037,33.607934 58.0767383,33.607934 C58.4631403,33.607934 58.8052619,33.4590105 59.1031133,33.161159 L59.4412133,33.970184 Z M67.6763633,26.423309 C68.9321696,26.423309 69.9142598,26.7694555 70.6226633,27.461759 C71.3310669,28.1540625 71.6852633,29.1361526 71.6852633,30.408059 C71.6852633,31.6799654 71.3310669,32.6620555 70.6226633,33.354359 C69.9142598,34.0466625 68.9321696,34.392809 67.6763633,34.392809 L65.1043883,34.392809 L65.1043883,26.423309 L67.6763633,26.423309 Z M67.7729633,33.487184 C68.6826179,33.487184 69.3930233,33.2154992 69.9042008,32.6721215 C70.4153784,32.1287438 70.6709633,31.3740638 70.6709633,30.408059 C70.6709633,29.4420542 70.4153784,28.6873742 69.9042008,28.1439965 C69.3930233,27.6006188 68.6826179,27.328934 67.7729633,27.328934 L66.0703883,27.328934 L66.0703883,33.487184 L67.7729633,33.487184 Z M76.4790383,28.234559 C76.7688398,28.234559 76.9902126,28.2748086 77.1431633,28.355309 L76.9499633,29.297159 C76.7567624,29.1925085 76.5031899,29.140184 76.1892383,29.140184 C75.9316371,29.140184 75.6800771,29.2146458 75.4345508,29.3635715 C75.1890246,29.5124972 74.9877766,29.737895 74.8308008,30.0397715 C74.6738251,30.341648 74.5953383,30.7059069 74.5953383,31.132559 L74.5953383,34.392809 L73.6293383,34.392809 L73.6293383,28.355309 L74.4142133,28.355309 L74.5470383,29.345459 C74.88514,28.6048553 75.5291336,28.234559 76.4790383,28.234559 Z M79.0389383,27.196109 C78.8215873,27.196109 78.6465015,27.1296972 78.5136758,26.9968715 C78.3808502,26.8640458 78.3144383,26.6889601 78.3144383,26.471609 C78.3144383,26.2542579 78.3808502,26.0791722 78.5136758,25.9463465 C78.6465015,25.8135208 78.8215873,25.747109 79.0389383,25.747109 C79.2562894,25.747109 79.4313752,25.8135208 79.5642008,25.9463465 C79.6970265,26.0791722 79.7634383,26.2542579 79.7634383,26.471609 C79.7634383,26.6889601 79.6970265,26.8640458 79.5642008,26.9968715 C79.4313752,27.1296972 79.2562894,27.196109 79.0389383,27.196109 Z M79.5219383,34.392809 L78.5559383,34.392809 L78.5559383,28.355309 L79.5219383,28.355309 L79.5219383,34.392809 Z M86.7790133,28.355309 L84.2674133,34.392809 L83.3014133,34.392809 L80.7898133,28.355309 L81.8886383,28.355309 L83.7964883,33.414734 L85.7647133,28.355309 L86.7790133,28.355309 Z M93.2270633,31.060109 C93.2270633,31.2855101 93.2109635,31.5109079 93.1787633,31.736309 L88.6264883,31.736309 C88.6828386,32.3481121 88.8860991,32.8230573 89.2362758,33.161159 C89.5864526,33.4992607 90.0392606,33.668309 90.5947133,33.668309 C91.0374656,33.668309 91.4057494,33.5918348 91.6995758,33.438884 C91.9934023,33.2859332 92.1926378,33.0645604 92.2972883,32.774759 L93.1063133,33.197384 C92.8648121,33.6240361 92.5428154,33.9500579 92.1403133,34.175459 C91.7378113,34.4008601 91.2226165,34.513559 90.5947133,34.513559 C89.6850588,34.513559 88.9706284,34.2358368 88.4514008,33.680384 C87.9321732,33.1249312 87.6725633,32.3561639 87.6725633,31.374059 C87.6725633,30.3919541 87.9200984,29.6231868 88.4151758,29.067734 C88.9102533,28.5122812 89.6126088,28.234559 90.5222633,28.234559 C91.0857662,28.234559 91.5727863,28.3593327 91.9833383,28.608884 C92.3938904,28.8584352 92.7038123,29.1965319 92.9131133,29.623184 C93.1224144,30.0498361 93.2270633,30.5288063 93.2270633,31.060109 Z M90.5222633,29.079809 C89.9909607,29.079809 89.5623025,29.2367824 89.2362758,29.550734 C88.9102492,29.8646856 88.7110137,30.3074311 88.6385633,30.878984 L92.2972883,30.878984 C92.232888,30.3154812 92.0477399,29.8747481 91.7418383,29.5567715 C91.4359368,29.2387949 91.0294159,29.079809 90.5222633,29.079809 Z M97.9966883,28.234559 C98.6809418,28.234559 99.2444361,28.431782 99.6871883,28.826234 C100.129941,29.220686 100.351313,29.7882053 100.351313,30.528809 L100.351313,34.392809 L99.3853133,34.392809 L99.3853133,30.866909 C99.3853133,30.2390059 99.2504772,29.7841854 98.9808008,29.502434 C98.7111245,29.2206826 98.3508906,29.079809 97.9000883,29.079809 C97.5780867,29.079809 97.2762147,29.1502458 96.9944633,29.2911215 C96.7127119,29.4319972 96.4812767,29.6614199 96.3001508,29.9793965 C96.1190249,30.2973731 96.0284633,30.6978566 96.0284633,31.180859 L96.0284633,34.392809 L95.0624633,34.392809 L95.0624633,28.355309 L95.9077133,28.355309 L95.9680883,29.297159 C96.1693393,28.9349072 96.4470616,28.6672474 96.8012633,28.4941715 C97.1554651,28.3210956 97.5539361,28.234559 97.9966883,28.234559 Z M109.407563,26.423309 C110.66337,26.423309 111.64546,26.7694555 112.353863,27.461759 C113.062267,28.1540625 113.416463,29.1361526 113.416463,30.408059 C113.416463,31.6799654 113.062267,32.6620555 112.353863,33.354359 C111.64546,34.0466625 110.66337,34.392809 109.407563,34.392809 L106.835588,34.392809 L106.835588,26.423309 L109.407563,26.423309 Z M109.504163,33.487184 C110.413818,33.487184 111.124223,33.2154992 111.635401,32.6721215 C112.146578,32.1287438 112.402163,31.3740638 112.402163,30.408059 C112.402163,29.4420542 112.146578,28.6873742 111.635401,28.1439965 C111.124223,27.6006188 110.413818,27.328934 109.504163,27.328934 L107.801588,27.328934 L107.801588,33.487184 L109.504163,33.487184 Z M120.540713,31.060109 C120.540713,31.2855101 120.524614,31.5109079 120.492413,31.736309 L115.940138,31.736309 C115.996489,32.3481121 116.199749,32.8230573 116.549926,33.161159 C116.900103,33.4992607 117.352911,33.668309 117.908363,33.668309 C118.351116,33.668309 118.719399,33.5918348 119.013226,33.438884 C119.307052,33.2859332 119.506288,33.0645604 119.610938,32.774759 L120.419963,33.197384 C120.178462,33.6240361 119.856465,33.9500579 119.453963,34.175459 C119.051461,34.4008601 118.536266,34.513559 117.908363,34.513559 C116.998709,34.513559 116.284278,34.2358368 115.765051,33.680384 C115.245823,33.1249312 114.986213,32.3561639 114.986213,31.374059 C114.986213,30.3919541 115.233748,29.6231868 115.728826,29.067734 C116.223903,28.5122812 116.926259,28.234559 117.835913,28.234559 C118.399416,28.234559 118.886436,28.3593327 119.296988,28.608884 C119.70754,28.8584352 120.017462,29.1965319 120.226763,29.623184 C120.436064,30.0498361 120.540713,30.5288063 120.540713,31.060109 Z M117.835913,29.079809 C117.304611,29.079809 116.875952,29.2367824 116.549926,29.550734 C116.223899,29.8646856 116.024664,30.3074311 115.952213,30.878984 L119.610938,30.878984 C119.546538,30.3154812 119.36139,29.8747481 119.055488,29.5567715 C118.749587,29.2387949 118.343066,29.079809 117.835913,29.079809 Z M124.428863,34.513559 C123.84926,34.513559 123.326016,34.3988476 122.859113,34.1694215 C122.392211,33.9399954 122.050089,33.5998863 121.832738,33.149084 L122.617613,32.605709 C122.754464,32.9599108 122.991937,33.2255581 123.330038,33.402659 C123.66814,33.5797599 124.066611,33.668309 124.525463,33.668309 C125.000416,33.668309 125.362662,33.5837848 125.612213,33.414734 C125.861765,33.2456832 125.986538,33.0323603 125.986538,32.774759 C125.986538,32.5413078 125.869815,32.3541472 125.636363,32.2132715 C125.402912,32.0723958 124.992366,31.9496345 124.404713,31.844984 C123.82511,31.7403335 123.366265,31.6135472 123.028163,31.4646215 C122.690062,31.3156958 122.444539,31.1265226 122.291588,30.8970965 C122.138638,30.6676704 122.062163,30.3839107 122.062163,30.045809 C122.062163,29.7157573 122.158762,29.4138854 122.351963,29.140184 C122.545164,28.8664826 122.822887,28.6471223 123.185138,28.4820965 C123.54739,28.3170707 123.965986,28.234559 124.440938,28.234559 C125.084942,28.234559 125.602149,28.3532953 125.992576,28.5907715 C126.383003,28.8282477 126.662737,29.1925065 126.831788,29.683559 L126.010688,30.166559 C125.881888,29.7801571 125.686677,29.5024348 125.425051,29.333384 C125.163425,29.1643332 124.83539,29.079809 124.440938,29.079809 C124.046486,29.079809 123.712415,29.1683581 123.438713,29.345459 C123.165012,29.5225599 123.028163,29.7278328 123.028163,29.961284 C123.028163,30.2269353 123.1469,30.4322083 123.384376,30.577109 C123.621852,30.7220097 124.046485,30.8467835 124.658288,30.951434 C125.495493,31.0882847 126.087162,31.2935576 126.433313,31.567259 C126.779465,31.8409604 126.952538,32.2273565 126.952538,32.726459 C126.952538,33.0726107 126.849902,33.3805201 126.644626,33.6501965 C126.43935,33.9198728 126.145528,34.1311832 125.763151,34.284134 C125.380774,34.4370848 124.936016,34.513559 124.428863,34.513559 Z M129.222638,27.196109 C129.005287,27.196109 128.830202,27.1296972 128.697376,26.9968715 C128.56455,26.8640458 128.498138,26.6889601 128.498138,26.471609 C128.498138,26.2542579 128.56455,26.0791722 128.697376,25.9463465 C128.830202,25.8135208 129.005287,25.747109 129.222638,25.747109 C129.439989,25.747109 129.615075,25.8135208 129.747901,25.9463465 C129.880727,26.0791722 129.947138,26.2542579 129.947138,26.471609 C129.947138,26.6889601 129.880727,26.8640458 129.747901,26.9968715 C129.615075,27.1296972 129.439989,27.196109 129.222638,27.196109 Z M129.705638,34.392809 L128.739638,34.392809 L128.739638,28.355309 L129.705638,28.355309 L129.705638,34.392809 Z M135.320513,33.620009 C135.892066,33.620009 136.338837,33.7488077 136.660838,34.006409 C136.98284,34.2640103 137.143838,34.6141818 137.143838,35.056934 C137.143838,35.4433359 137.011015,35.783445 136.745363,36.0772715 C136.479712,36.371098 136.119478,36.5964957 135.664651,36.7534715 C135.209824,36.9104473 134.708716,36.988934 134.161313,36.988934 C133.243609,36.988934 132.551316,36.842023 132.084413,36.5481965 C131.617511,36.25437 131.384063,35.8699864 131.384063,35.395034 C131.384063,35.1213326 131.47865,34.879835 131.667826,34.670534 C131.857002,34.461233 132.116612,34.3123094 132.446663,34.223759 C132.197112,34.1030084 131.997877,33.9500599 131.848951,33.764909 C131.700025,33.5797581 131.625563,33.3624102 131.625563,33.112859 C131.625563,32.8150075 131.706063,32.5674725 131.867063,32.3702465 C132.028064,32.1730205 132.249437,32.0261095 132.531188,31.929509 C132.241387,31.7524081 132.022027,31.5209729 131.873101,31.2351965 C131.724175,30.9494201 131.649713,30.6294358 131.649713,30.275234 C131.649713,29.880782 131.754362,29.528598 131.963663,29.2186715 C132.172964,28.9087449 132.466786,28.6672474 132.845138,28.4941715 C133.22349,28.3210956 133.650136,28.234559 134.125088,28.234559 C134.575891,28.234559 134.986436,28.3150582 135.356738,28.476059 C135.582139,27.6549549 136.149659,27.244409 137.059313,27.244409 L137.276663,28.089659 C136.487759,28.089659 136.008789,28.3110318 135.839738,28.753784 C136.08124,28.9389349 136.2684,29.1603077 136.401226,29.417909 C136.534052,29.6755103 136.600463,29.9612824 136.600463,30.275234 C136.600463,30.669686 136.495814,31.0218699 136.286513,31.3317965 C136.077212,31.641723 135.78339,31.8832206 135.405038,32.0562965 C135.026686,32.2293724 134.600041,32.315909 134.125088,32.315909 C133.770887,32.315909 133.460965,32.2796844 133.195313,32.207234 C132.953812,32.2635843 132.780739,32.3521334 132.676088,32.472884 C132.571438,32.5936346 132.519113,32.758658 132.519113,32.967959 C132.519113,33.17726 132.591563,33.3382584 132.736463,33.450959 C132.881364,33.5636596 133.074562,33.620009 133.316063,33.620009 L135.320513,33.620009 Z M134.125088,29.019434 C133.706486,29.019434 133.356315,29.1361578 133.074563,29.369609 C132.792812,29.6030602 132.651938,29.9049321 132.651938,30.275234 C132.651938,30.6455358 132.792812,30.9474078 133.074563,31.180859 C133.356315,31.4143102 133.706486,31.531034 134.125088,31.531034 C134.54369,31.531034 134.893862,31.4143102 135.175613,31.180859 C135.457365,30.9474078 135.598238,30.6455358 135.598238,30.275234 C135.598238,29.9049321 135.457365,29.6030602 135.175613,29.369609 C134.893862,29.1361578 134.54369,29.019434 134.125088,29.019434 Z M134.269988,36.179909 C134.881791,36.179909 135.364787,36.0812975 135.718988,35.8840715 C136.07319,35.6868455 136.250288,35.4473604 136.250288,35.165609 C136.250288,34.9321578 136.159727,34.7550596 135.978601,34.634309 C135.797475,34.5135584 135.489566,34.453184 135.054863,34.453184 L133.436813,34.453184 C133.066511,34.453184 132.780739,34.5195958 132.579488,34.6524215 C132.378237,34.7852472 132.277613,34.9683828 132.277613,35.201834 C132.277613,35.5077355 132.446662,35.7472206 132.784763,35.9202965 C133.122865,36.0933724 133.617935,36.179909 134.269988,36.179909 Z M141.514988,28.234559 C142.199242,28.234559 142.762736,28.431782 143.205488,28.826234 C143.648241,29.220686 143.869613,29.7882053 143.869613,30.528809 L143.869613,34.392809 L142.903613,34.392809 L142.903613,30.866909 C142.903613,30.2390059 142.768777,29.7841854 142.499101,29.502434 C142.229424,29.2206826 141.869191,29.079809 141.418388,29.079809 C141.096387,29.079809 140.794515,29.1502458 140.512763,29.2911215 C140.231012,29.4319972 139.999577,29.6614199 139.818451,29.9793965 C139.637325,30.2973731 139.546763,30.6978566 139.546763,31.180859 L139.546763,34.392809 L138.580763,34.392809 L138.580763,28.355309 L139.426013,28.355309 L139.486388,29.297159 C139.687639,28.9349072 139.965362,28.6672474 140.319563,28.4941715 C140.673765,28.3210956 141.072236,28.234559 141.514988,28.234559 Z" id="Content-Driven-Desig"></path>
            </g>
        </g>
    </g>
</svg>