<?xml version="1.0" encoding="UTF-8"?>
<svg width="44px" height="44px" viewBox="0 0 44 44" version="1.1" xmlns="http://www.w3.org/2000/svg" xmlns:xlink="http://www.w3.org/1999/xlink">
    <g id="Page-1" stroke="none" stroke-width="1" fill="none" fill-rule="evenodd">
        <g id="iPXS_Recent-Copy" transform="translate(-267.000000, -677.000000)">
            <g id="Control/Link_5" transform="translate(267.000000, 677.000000)">
                <circle id="Oval" fill="#000000" cx="22" cy="22" r="22"></circle>
                <path d="M12.4530638,29.1609661 L13.5595091,33.6941692 L14.6820677,29.1609661 L15.7670286,29.1609661 L16.8949583,33.6673138 L18.0712278,29.1609661 L19.0380247,29.1609661 L17.3676146,34.9134075 L16.36322,34.9134075 L15.1923216,30.4607708 L14.0590208,34.9134075 L13.0546263,34.9134075 L11.3949583,29.1609661 L12.4530638,29.1609661 Z M20.8969114,29.1609661 L22.0033567,33.6941692 L23.1259153,29.1609661 L24.2108763,29.1609661 L25.338806,33.6673138 L26.5150755,29.1609661 L27.4818724,29.1609661 L25.8114622,34.9134075 L24.8070677,34.9134075 L23.6361692,30.4607708 L22.5028685,34.9134075 L21.4984739,34.9134075 L19.838806,29.1609661 L20.8969114,29.1609661 Z M29.3407591,29.1609661 L30.4472044,33.6941692 L31.569763,29.1609661 L32.6547239,29.1609661 L33.7826536,33.6673138 L34.9589232,29.1609661 L35.92572,29.1609661 L34.2553099,34.9134075 L33.2509153,34.9134075 L32.0800169,30.4607708 L30.9467161,34.9134075 L29.9423216,34.9134075 L28.2826536,29.1609661 L29.3407591,29.1609661 Z" id="www" fill="#FFFFFF" transform="translate(23.660339, 32.037187) rotate(-20.000000) translate(-23.660339, -32.037187) "></path>
                <g id="Group-2-Copy" stroke-width="1" transform="translate(16.000000, 6.000000)" stroke="#FFFFFF" stroke-linecap="round">
                    <path d="M11.4470723,5.47941719 L-4.17443857e-14,19" id="Path-10" stroke-width="2"></path>
                    <g id="Group-4-Copy" transform="translate(9.681810, 7.710201) rotate(-45.000000) translate(-9.681810, -7.710201) translate(6.181810, 1.710201)" stroke-linejoin="round" stroke-width="2">
                        <polyline id="Path-9" points="-1.6708661e-12 3.93063786e-13 6.54354691 5.61549579 0.780406881 11.2678062"></polyline>
                    </g>
                </g>
            </g>
        </g>
    </g>
</svg>
