<?xml version="1.0" encoding="UTF-8"?>
<svg width="199px" height="42px" viewBox="0 0 199 42" version="1.1" xmlns="http://www.w3.org/2000/svg" xmlns:xlink="http://www.w3.org/1999/xlink">
    <!-- Generator: Sketch 52.6 (67491) - http://www.bohemiancoding.com/sketch -->
    <title>Group</title>
    <desc>Created with Sketch.</desc>
    <g id="Page-1" stroke="none" stroke-width="1" fill="none" fill-rule="evenodd">
        <g id="1440-Landingpage-Copy-3" transform="translate(-621.000000, -124.000000)" fill="#FFFFFF">
            <g id="Group" transform="translate(621.000000, 124.000000)">
                <path d="M17.4102015,14.0034812 C17.4102015,16.7204822 15.2581215,18.7649582 11.0884665,18.7649582 L0.516373486,18.7649582 L0.516373486,0.848892235 L10.7925555,0.848892235 C15.1774185,0.848892235 16.7107755,2.75886323 16.7107755,5.01854723 C16.7107755,7.46653823 14.8277055,9.10749923 11.1422685,9.61861823 L11.2229715,9.61861823 C14.9353095,9.61861823 17.4102015,11.4478862 17.4102015,14.0034812 Z M10.9539615,6.44430023 C10.9539615,5.31445823 10.1469315,4.61503223 8.66737649,4.61503223 L6.27318749,4.61503223 L6.27318749,8.30046923 L8.66737649,8.30046923 C10.3083375,8.30046923 10.9539615,7.35893423 10.9539615,6.44430023 Z M11.6533875,12.9005402 C11.6533875,11.7437972 10.7118525,10.9905692 9.04399049,10.9905692 L6.27318749,10.9905692 L6.27318749,14.9988182 L8.99018849,14.9988182 C10.8732585,14.9988182 11.6533875,14.1110852 11.6533875,12.9005402 Z M31.7181175,13.2233522 L24.5086495,13.2233522 C24.5355505,14.7836102 25.1273725,16.0210562 26.4186205,16.0210562 C27.3063535,16.0210562 27.6022645,15.4830362 27.6022645,14.8105112 C27.6022645,14.6491052 27.5753635,14.4607982 27.5484625,14.2993922 L31.7719195,14.7029072 C31.7988205,14.9450162 31.8257215,15.2140262 31.8257215,15.4292342 C31.8257215,18.0386312 29.3508295,19.0339682 25.8806005,19.0339682 C20.8501135,19.0339682 18.9132415,16.2631652 18.9132415,12.4970252 C18.9132415,8.99989523 21.3074305,5.96008223 25.9613035,5.96008223 C29.8350475,5.96008223 31.9333255,8.05836023 31.9333255,11.3133812 C31.9333255,11.8245002 31.8257215,12.6315302 31.7181175,13.2233522 Z M26.2034125,9.13440023 C25.1004715,9.13440023 24.5893525,10.3180442 24.5086495,11.4478862 L27.2525515,11.4478862 C27.3063535,11.1250742 27.3332545,10.8291632 27.3332545,10.5601532 C27.3332545,9.69932123 27.0104425,9.13440023 26.2034125,9.13440023 Z M39.9733085,18.7649582 L34.4317025,18.7649582 L34.4317025,0.848892235 L39.9733085,0.848892235 L39.9733085,18.7649582 Z M48.9010245,4.96474523 L43.3594185,4.96474523 L43.3594185,0.848892235 L48.9010245,0.848892235 L48.9010245,4.96474523 Z M48.9010245,18.7649582 L43.3594185,18.7649582 L43.3594185,6.22909223 L48.9010245,6.22909223 L48.9010245,18.7649582 Z M66.4639615,18.7649582 L60.9223555,18.7649582 L60.9223555,11.5016882 C60.9223555,10.6677572 60.5726425,10.1566382 59.7656125,10.1566382 C58.3398595,10.1566382 57.8287405,12.0666092 57.8287405,14.9988182 L57.8287405,18.7649582 L52.2871345,18.7649582 L52.2871345,6.22909223 L56.2146805,6.22909223 L57.2907205,10.5870542 C57.9632455,7.54724123 59.4158995,5.96008223 61.9445935,5.96008223 C65.0113075,5.96008223 66.4639615,8.11216223 66.4639615,11.8514012 L66.4639615,18.7649582 Z M76.0911036,5.98698323 C77.2209456,5.98698323 78.2431836,6.12148823 79.1040156,6.39049823 C79.2116196,6.14838923 79.2654216,5.98698323 79.2654216,5.77177523 C79.2654216,5.17995323 78.9157086,4.91094323 78.2700846,4.91094323 L78.0279756,4.91094323 L78.7005006,3.13547723 C79.0771146,3.05477423 79.4268276,3.02787323 79.7227386,3.02787323 C81.2022936,3.02787323 81.8479176,3.80800223 81.8479176,4.80333923 C81.8479176,5.69107223 81.2829966,6.44430023 80.3683626,6.90161723 C81.6058086,7.35893423 82.5473436,8.59638023 82.5473436,10.1835392 C82.5473436,12.5508272 80.3683626,14.3531942 76.0911036,14.3531942 C74.9881626,14.3531942 74.0197266,14.2455902 73.1857956,14.0034812 C72.9436866,14.1648872 72.7553796,14.3800952 72.7553796,14.6760062 C72.7553796,15.2140262 73.3203006,15.3485312 73.9659246,15.3485312 L77.2747476,15.3485312 C81.6058086,15.3485312 83.7578886,16.4245712 83.7578886,19.2760772 C83.7578886,22.1813852 80.6642736,23.4457322 75.7951926,23.4457322 C71.5448346,23.4457322 68.2360116,22.6387022 68.2360116,20.8094342 C68.2360116,19.4374832 69.8769726,18.7380572 72.2442606,18.6842552 C70.3073886,18.4152452 68.9892396,17.7427202 68.9892396,16.1824622 C68.9892396,14.7836102 70.6302006,13.9227782 72.1097556,13.6268672 C70.5225966,12.8736392 69.6617646,11.6899952 69.6617646,10.1835392 C69.6617646,7.54724123 72.0290526,5.98698323 76.0911036,5.98698323 Z M77.1940446,18.8456612 L74.9612616,18.8456612 C73.7238156,18.8456612 73.1319936,19.2222752 73.1319936,19.9217012 C73.1319936,20.6480282 73.9928256,21.0784442 75.9834996,21.0784442 C78.0279756,21.0784442 78.9157086,20.5942262 78.9157086,19.8678992 C78.9157086,19.1953742 78.3507876,18.8456612 77.1940446,18.8456612 Z M77.6244606,10.1835392 C77.6244606,9.18820223 77.1671436,8.30046923 76.1180046,8.30046923 C75.0688656,8.30046923 74.5846476,9.26890523 74.5846476,10.1835392 C74.5846476,11.0981732 75.0688656,12.0397082 76.0911036,12.0397082 C77.1133416,12.0397082 77.6244606,11.1788762 77.6244606,10.1835392 Z M101.509133,5.04544823 L95.8330216,5.04544823 L95.8330216,18.7649582 L90.0762076,18.7649582 L90.0762076,5.04544823 L84.4000966,5.04544823 L84.4000966,0.848892235 L101.509133,0.848892235 L101.509133,5.04544823 Z M117.807723,18.7649582 L112.266117,18.7649582 L112.266117,11.5016882 C112.266117,10.6677572 111.916404,10.1566382 111.109374,10.1566382 C109.683621,10.1566382 109.172502,12.0666092 109.172502,14.9988182 L109.172502,18.7649582 L103.630896,18.7649582 L103.630896,0.848892235 L109.172502,0.848892235 L109.172502,9.88762823 C109.764324,7.41273623 111.297681,5.96008223 113.207652,5.96008223 C116.355069,5.96008223 117.807723,8.11216223 117.807723,11.8514012 L117.807723,18.7649582 Z M134.859541,12.4970252 C134.859541,16.4783732 131.819728,19.0339682 127.488667,19.0339682 C123.184507,19.0339682 120.117793,16.4783732 120.117793,12.4970252 C120.117793,8.51567723 123.184507,5.96008223 127.488667,5.96008223 C131.819728,5.96008223 134.859541,8.51567723 134.859541,12.4970252 Z M129.317935,12.4970252 C129.317935,10.1028362 128.564707,9.24200423 127.488667,9.24200423 C126.412627,9.24200423 125.659399,10.1028362 125.659399,12.4970252 C125.659399,14.8912142 126.412627,15.7520462 127.488667,15.7520462 C128.564707,15.7520462 129.317935,14.8912142 129.317935,12.4970252 Z M149.301962,13.2233522 L142.092494,13.2233522 C142.119395,14.7836102 142.711217,16.0210562 144.002465,16.0210562 C144.890198,16.0210562 145.186109,15.4830362 145.186109,14.8105112 C145.186109,14.6491052 145.159208,14.4607982 145.132307,14.2993922 L149.355764,14.7029072 C149.382665,14.9450162 149.409566,15.2140262 149.409566,15.4292342 C149.409566,18.0386312 146.934674,19.0339682 143.464445,19.0339682 C138.433958,19.0339682 136.497086,16.2631652 136.497086,12.4970252 C136.497086,8.99989523 138.891275,5.96008223 143.545148,5.96008223 C147.418892,5.96008223 149.51717,8.05836023 149.51717,11.3133812 C149.51717,11.8245002 149.409566,12.6315302 149.301962,13.2233522 Z M143.787257,9.13440023 C142.684316,9.13440023 142.173197,10.3180442 142.092494,11.4478862 L144.836396,11.4478862 C144.890198,11.1250742 144.917099,10.8291632 144.917099,10.5601532 C144.917099,9.69932123 144.594287,9.13440023 143.787257,9.13440023 Z M166.192374,18.7649582 L160.650768,18.7649582 L160.650768,11.5016882 C160.650768,10.6677572 160.301055,10.1566382 159.494025,10.1566382 C158.068272,10.1566382 157.557153,12.0666092 157.557153,14.9988182 L157.557153,18.7649582 L152.015547,18.7649582 L152.015547,6.22909223 L155.943093,6.22909223 L157.019133,10.5870542 C157.691658,7.54724123 159.144312,5.96008223 161.673006,5.96008223 C164.73972,5.96008223 166.192374,8.11216223 166.192374,11.8514012 L166.192374,18.7649582 Z M181.30732,13.2233522 L174.097852,13.2233522 C174.124753,14.7836102 174.716575,16.0210562 176.007823,16.0210562 C176.895556,16.0210562 177.191467,15.4830362 177.191467,14.8105112 C177.191467,14.6491052 177.164566,14.4607982 177.137665,14.2993922 L181.361122,14.7029072 C181.388023,14.9450162 181.414924,15.2140262 181.414924,15.4292342 C181.414924,18.0386312 178.940032,19.0339682 175.469803,19.0339682 C170.439316,19.0339682 168.502444,16.2631652 168.502444,12.4970252 C168.502444,8.99989523 170.896633,5.96008223 175.550506,5.96008223 C179.42425,5.96008223 181.522528,8.05836023 181.522528,11.3133812 C181.522528,11.8245002 181.414924,12.6315302 181.30732,13.2233522 Z M175.792615,9.13440023 C174.689674,9.13440023 174.178555,10.3180442 174.097852,11.4478862 L176.841754,11.4478862 C176.895556,11.1250742 176.922457,10.8291632 176.922457,10.5601532 C176.922457,9.69932123 176.599645,9.13440023 175.792615,9.13440023 Z M198.197732,18.7649582 L192.656126,18.7649582 L192.656126,11.5016882 C192.656126,10.6677572 192.306413,10.1566382 191.499383,10.1566382 C190.07363,10.1566382 189.562511,12.0666092 189.562511,14.9988182 L189.562511,18.7649582 L184.020905,18.7649582 L184.020905,6.22909223 L187.948451,6.22909223 L189.024491,10.5870542 C189.697016,7.54724123 191.14967,5.96008223 193.678364,5.96008223 C196.745078,5.96008223 198.197732,8.11216223 198.197732,11.8514012 L198.197732,18.7649582 Z" id="BelingThoenen"></path>
                <path d="M39.5343831,37.0647158 C39.2799494,37.7541493 38.861371,38.293787 38.2786356,38.6836452 C37.6959002,39.0735034 37.0228919,39.2684296 36.2595906,39.2684296 C35.4962893,39.2684296 34.8314885,39.0981257 34.2651681,38.7575127 C33.6988478,38.4168998 33.2618028,37.9326621 32.95402,37.3047852 C32.6462372,36.6769083 32.4923481,35.9361889 32.4923481,35.0826046 C32.4923481,34.2372279 32.6462372,33.4985603 32.95402,32.8665796 C33.2618028,32.2345989 33.6988478,31.7483094 34.2651681,31.4076965 C34.8314885,31.0670835 35.4880819,30.8967796 36.2349681,30.8967796 C37.0146845,30.8967796 37.6692261,31.0568242 38.1986125,31.3769183 C38.7279989,31.6970124 39.1240068,32.168939 39.3866481,32.7927121 L38.4140594,33.2482283 C38.2334935,32.772191 37.9708561,32.4151683 37.6261394,32.1771496 C37.2814227,31.9391309 36.8423258,31.8201233 36.3088356,31.8201233 C35.7507228,31.8201233 35.2623815,31.9493902 34.8437969,32.2079277 C34.4252123,32.4664653 34.1010193,32.8419546 33.8712081,33.3344071 C33.641397,33.8268596 33.5264931,34.4095862 33.5264931,35.0826046 C33.5264931,36.1003397 33.7706638,36.8985111 34.2590125,37.4771427 C34.7473612,38.0557744 35.4142139,38.3450858 36.2595906,38.3450858 C36.8094959,38.3450858 37.2855261,38.2055597 37.6876956,37.9265033 C38.0898651,37.647447 38.3771248,37.2370761 38.5494831,36.6953783 L39.5343831,37.0647158 Z M43.8433206,32.8665796 C44.7707728,32.8665796 45.4991811,33.1497355 46.0285675,33.7160558 C46.5579539,34.2823762 46.8226431,35.0661846 46.8226431,36.0675046 C46.8226431,37.0688246 46.5579539,37.852633 46.0285675,38.4189533 C45.4991811,38.9852737 44.7707728,39.2684296 43.8433206,39.2684296 C42.9158685,39.2684296 42.1874601,38.9852737 41.6580737,38.4189533 C41.1286874,37.852633 40.8639981,37.0688246 40.8639981,36.0675046 C40.8639981,35.0661846 41.1286874,34.2823762 41.6580737,33.7160558 C42.1874601,33.1497355 42.9158685,32.8665796 43.8433206,32.8665796 Z M43.8433206,33.7160558 C43.2195475,33.7160558 42.7312061,33.925345 42.3782819,34.3439296 C42.0253576,34.7625142 41.8488981,35.3370334 41.8488981,36.0675046 C41.8488981,36.7979757 42.0253576,37.372495 42.3782819,37.7910796 C42.7312061,38.2096642 43.2195475,38.4189533 43.8433206,38.4189533 C44.4670937,38.4189533 44.9554351,38.2096642 45.3083594,37.7910796 C45.6612836,37.372495 45.8377431,36.7979757 45.8377431,36.0675046 C45.8377431,35.3370334 45.6612836,34.7625142 45.3083594,34.3439296 C44.9554351,33.925345 44.4670937,33.7160558 43.8433206,33.7160558 Z M51.7225206,32.8665796 C52.4201616,32.8665796 52.9946809,33.0676613 53.4460956,33.4698308 C53.8975104,33.8720004 54.1232144,34.4506233 54.1232144,35.2057171 L54.1232144,39.1453171 L53.1383144,39.1453171 L53.1383144,35.5504321 C53.1383144,34.9102439 53.0008401,34.4465248 52.7258875,34.1592608 C52.4509349,33.8719969 52.0836529,33.7283671 51.6240306,33.7283671 C51.295729,33.7283671 50.9879508,33.800182 50.7006869,33.943814 C50.4134229,34.0874459 50.1774597,34.3213573 49.99279,34.6455552 C49.8081203,34.9697531 49.7157869,35.3780721 49.7157869,35.8705246 L49.7157869,39.1453171 L48.7308869,39.1453171 L48.7308869,32.9896921 L49.5926744,32.9896921 L49.6542306,33.9499696 C49.8594192,33.5806302 50.1425751,33.3077336 50.5037069,33.1312715 C50.8648387,32.9548093 51.2711059,32.8665796 51.7225206,32.8665796 Z M60.1187931,38.7144233 C59.7084161,39.0837627 59.1790376,39.2684296 58.5306419,39.2684296 C58.0299819,39.2684296 57.6216628,39.1330072 57.3056725,38.8621583 C56.9896822,38.5913095 56.8275857,38.1768349 56.8193781,37.6187221 L56.8193781,33.8391683 L55.5882531,33.8391683 L55.5882531,32.9896921 L56.8193781,32.9896921 L56.8193781,31.5123421 L57.8042781,31.2414946 L57.8042781,32.9896921 L60.0818594,32.9896921 L60.0818594,33.8391683 L57.8042781,33.8391683 L57.8042781,37.4463646 C57.8042781,37.7418361 57.8884042,37.9654882 58.0566587,38.1173277 C58.2249133,38.2691672 58.4485655,38.3450858 58.7276219,38.3450858 C59.1215838,38.3450858 59.4703991,38.1932486 59.7740781,37.8895696 L60.1187931,38.7144233 Z M66.7914906,35.7474121 C66.7914906,35.9772232 66.7750758,36.2070309 66.7422456,36.4368421 L62.1009044,36.4368421 C62.1583572,37.0606152 62.3655945,37.5448529 62.7226225,37.8895696 C63.0796505,38.2342863 63.5413178,38.4066421 64.1076381,38.4066421 C64.5590529,38.4066421 64.9345423,38.3286716 65.2341175,38.1727283 C65.5336927,38.0167851 65.7368263,37.7910811 65.8435244,37.4956096 L66.6683781,37.9265033 C66.4221519,38.361503 66.0938552,38.6939034 65.6834781,38.9237146 C65.2731011,39.1535257 64.7478263,39.2684296 64.1076381,39.2684296 C63.180186,39.2684296 62.4517776,38.9852737 61.9223912,38.4189533 C61.3930049,37.852633 61.1283156,37.0688246 61.1283156,36.0675046 C61.1283156,35.0661846 61.3806937,34.2823762 61.8854575,33.7160558 C62.3902213,33.1497355 63.1063185,32.8665796 64.0337706,32.8665796 C64.6082985,32.8665796 65.1048473,32.9937946 65.5234319,33.2482283 C65.9420165,33.5026621 66.2580021,33.8473737 66.4713981,34.2823733 C66.6847942,34.717373 66.7914906,35.2057144 66.7914906,35.7474121 Z M64.0337706,33.7283671 C63.4920729,33.7283671 63.0550279,33.8884117 62.7226225,34.2085058 C62.3902171,34.5285999 62.1870835,34.9800079 62.1132156,35.5627433 L65.8435244,35.5627433 C65.777864,34.9882155 65.5890934,34.5388593 65.2772069,34.2146615 C64.9653203,33.8904636 64.5508457,33.7283671 64.0337706,33.7283671 Z M71.6544344,32.8665796 C72.3520754,32.8665796 72.9265946,33.0676613 73.3780094,33.4698308 C73.8294241,33.8720004 74.0551281,34.4506233 74.0551281,35.2057171 L74.0551281,39.1453171 L73.0702281,39.1453171 L73.0702281,35.5504321 C73.0702281,34.9102439 72.9327539,34.4465248 72.6578012,34.1592608 C72.3828486,33.8719969 72.0155667,33.7283671 71.5559444,33.7283671 C71.2276427,33.7283671 70.9198646,33.800182 70.6326006,33.943814 C70.3453367,34.0874459 70.1093734,34.3213573 69.9247037,34.6455552 C69.7400341,34.9697531 69.6477006,35.3780721 69.6477006,35.8705246 L69.6477006,39.1453171 L68.6628006,39.1453171 L68.6628006,32.9896921 L69.5245881,32.9896921 L69.5861444,33.9499696 C69.7913329,33.5806302 70.0744888,33.3077336 70.4356206,33.1312715 C70.7967524,32.9548093 71.2030196,32.8665796 71.6544344,32.8665796 Z M80.0507069,38.7144233 C79.6403298,39.0837627 79.1109514,39.2684296 78.4625556,39.2684296 C77.9618956,39.2684296 77.5535766,39.1330072 77.2375862,38.8621583 C76.9215959,38.5913095 76.7594994,38.1768349 76.7512919,37.6187221 L76.7512919,33.8391683 L75.5201669,33.8391683 L75.5201669,32.9896921 L76.7512919,32.9896921 L76.7512919,31.5123421 L77.7361919,31.2414946 L77.7361919,32.9896921 L80.0137731,32.9896921 L80.0137731,33.8391683 L77.7361919,33.8391683 L77.7361919,37.4463646 C77.7361919,37.7418361 77.8203179,37.9654882 77.9885725,38.1173277 C78.1568271,38.2691672 78.3804792,38.3450858 78.6595356,38.3450858 C79.0534976,38.3450858 79.4023129,38.1932486 79.7059919,37.8895696 L80.0507069,38.7144233 Z M88.4469794,31.0198921 C89.7273558,31.0198921 90.7286608,31.3728111 91.4509244,32.0786596 C92.173188,32.7845081 92.5343144,33.7858131 92.5343144,35.0826046 C92.5343144,36.3793961 92.173188,37.3807011 91.4509244,38.0865496 C90.7286608,38.7923981 89.7273558,39.1453171 88.4469794,39.1453171 L85.8246831,39.1453171 L85.8246831,31.0198921 L88.4469794,31.0198921 Z M88.5454694,38.2219733 C89.4729215,38.2219733 90.1972261,37.944973 90.718405,37.390964 C91.2395839,36.836955 91.5001694,36.0675095 91.5001694,35.0826046 C91.5001694,34.0976997 91.2395839,33.3282542 90.718405,32.7742452 C90.1972261,32.2202362 89.4729215,31.9432358 88.5454694,31.9432358 L86.8095831,31.9432358 L86.8095831,38.2219733 L88.5454694,38.2219733 Z M97.4218806,32.8665796 C97.7173521,32.8665796 97.9430561,32.9076167 98.0989994,32.9896921 L97.9020194,33.9499696 C97.7050384,33.8432716 97.4465047,33.7899233 97.1264106,33.7899233 C96.8637693,33.7899233 96.6072875,33.865842 96.3569575,34.0176815 C96.1066275,34.169521 95.9014421,34.3993287 95.741395,34.7071115 C95.5813479,35.0148943 95.5013256,35.3862799 95.5013256,35.8212796 L95.5013256,39.1453171 L94.5164256,39.1453171 L94.5164256,32.9896921 L95.3166569,32.9896921 L95.4520806,33.9992146 C95.7967973,33.2441208 96.4533908,32.8665796 97.4218806,32.8665796 Z M100.031866,31.8078121 C99.810262,31.8078121 99.6317507,31.7401009 99.4963262,31.6046765 C99.3609018,31.469252 99.2931906,31.2907407 99.2931906,31.0691371 C99.2931906,30.8475335 99.3609018,30.6690221 99.4963262,30.5335977 C99.6317507,30.3981733 99.810262,30.3304621 100.031866,30.3304621 C100.253469,30.3304621 100.431981,30.3981733 100.567405,30.5335977 C100.702829,30.6690221 100.770541,30.8475335 100.770541,31.0691371 C100.770541,31.2907407 100.702829,31.469252 100.567405,31.6046765 C100.431981,31.7401009 100.253469,31.8078121 100.031866,31.8078121 Z M100.524316,39.1453171 L99.5394156,39.1453171 L99.5394156,32.9896921 L100.524316,32.9896921 L100.524316,39.1453171 Z M107.923377,32.9896921 L105.362637,39.1453171 L104.377737,39.1453171 L101.816997,32.9896921 L102.937321,32.9896921 L104.882498,38.1481058 L106.889232,32.9896921 L107.923377,32.9896921 Z M114.497584,35.7474121 C114.497584,35.9772232 114.48117,36.2070309 114.448339,36.4368421 L109.806998,36.4368421 C109.864451,37.0606152 110.071688,37.5448529 110.428716,37.8895696 C110.785744,38.2342863 111.247412,38.4066421 111.813732,38.4066421 C112.265147,38.4066421 112.640636,38.3286716 112.940211,38.1727283 C113.239786,38.0167851 113.44292,37.7910811 113.549618,37.4956096 L114.374472,37.9265033 C114.128246,38.361503 113.799949,38.6939034 113.389572,38.9237146 C112.979195,39.1535257 112.45392,39.2684296 111.813732,39.2684296 C110.88628,39.2684296 110.157871,38.9852737 109.628485,38.4189533 C109.099099,37.852633 108.834409,37.0688246 108.834409,36.0675046 C108.834409,35.0661846 109.086787,34.2823762 109.591551,33.7160558 C110.096315,33.1497355 110.812412,32.8665796 111.739864,32.8665796 C112.314392,32.8665796 112.810941,32.9937946 113.229526,33.2482283 C113.64811,33.5026621 113.964096,33.8473737 114.177492,34.2823733 C114.390888,34.717373 114.497584,35.2057144 114.497584,35.7474121 Z M111.739864,33.7283671 C111.198167,33.7283671 110.761122,33.8884117 110.428716,34.2085058 C110.096311,34.5285999 109.893177,34.9800079 109.819309,35.5627433 L113.549618,35.5627433 C113.483958,34.9882155 113.295187,34.5388593 112.983301,34.2146615 C112.671414,33.8904636 112.256939,33.7283671 111.739864,33.7283671 Z M119.360528,32.8665796 C120.058169,32.8665796 120.632688,33.0676613 121.084103,33.4698308 C121.535518,33.8720004 121.761222,34.4506233 121.761222,35.2057171 L121.761222,39.1453171 L120.776322,39.1453171 L120.776322,35.5504321 C120.776322,34.9102439 120.638848,34.4465248 120.363895,34.1592608 C120.088942,33.8719969 119.72166,33.7283671 119.262038,33.7283671 C118.933736,33.7283671 118.625958,33.800182 118.338694,33.943814 C118.05143,34.0874459 117.815467,34.3213573 117.630797,34.6455552 C117.446128,34.9697531 117.353794,35.3780721 117.353794,35.8705246 L117.353794,39.1453171 L116.368894,39.1453171 L116.368894,32.9896921 L117.230682,32.9896921 L117.292238,33.9499696 C117.497427,33.5806302 117.780583,33.3077336 118.141714,33.1312715 C118.502846,32.9548093 118.909113,32.8665796 119.360528,32.8665796 Z M130.994659,31.0198921 C132.275036,31.0198921 133.276341,31.3728111 133.998604,32.0786596 C134.720868,32.7845081 135.081994,33.7858131 135.081994,35.0826046 C135.081994,36.3793961 134.720868,37.3807011 133.998604,38.0865496 C133.276341,38.7923981 132.275036,39.1453171 130.994659,39.1453171 L128.372363,39.1453171 L128.372363,31.0198921 L130.994659,31.0198921 Z M131.093149,38.2219733 C132.020602,38.2219733 132.744906,37.944973 133.266085,37.390964 C133.787264,36.836955 134.047849,36.0675095 134.047849,35.0826046 C134.047849,34.0976997 133.787264,33.3282542 133.266085,32.7742452 C132.744906,32.2202362 132.020602,31.9432358 131.093149,31.9432358 L129.357263,31.9432358 L129.357263,38.2219733 L131.093149,38.2219733 Z M142.345632,35.7474121 C142.345632,35.9772232 142.329217,36.2070309 142.296387,36.4368421 L137.655046,36.4368421 C137.712498,37.0606152 137.919736,37.5448529 138.276764,37.8895696 C138.633792,38.2342863 139.095459,38.4066421 139.661779,38.4066421 C140.113194,38.4066421 140.488684,38.3286716 140.788259,38.1727283 C141.087834,38.0167851 141.290968,37.7910811 141.397666,37.4956096 L142.222519,37.9265033 C141.976293,38.361503 141.647996,38.6939034 141.237619,38.9237146 C140.827242,39.1535257 140.301968,39.2684296 139.661779,39.2684296 C138.734327,39.2684296 138.005919,38.9852737 137.476532,38.4189533 C136.947146,37.852633 136.682457,37.0688246 136.682457,36.0675046 C136.682457,35.0661846 136.934835,34.2823762 137.439599,33.7160558 C137.944363,33.1497355 138.66046,32.8665796 139.587912,32.8665796 C140.16244,32.8665796 140.658989,32.9937946 141.077573,33.2482283 C141.496158,33.5026621 141.812143,33.8473737 142.025539,34.2823733 C142.238935,34.717373 142.345632,35.2057144 142.345632,35.7474121 Z M139.587912,33.7283671 C139.046214,33.7283671 138.609169,33.8884117 138.276764,34.2085058 C137.944358,34.5285999 137.741225,34.9800079 137.667357,35.5627433 L141.397666,35.5627433 C141.332005,34.9882155 141.143235,34.5388593 140.831348,34.2146615 C140.519462,33.8904636 140.104987,33.7283671 139.587912,33.7283671 Z M146.309854,39.2684296 C145.718911,39.2684296 145.185429,39.1514739 144.709392,38.917559 C144.233354,38.6836441 143.884539,38.3368806 143.662936,37.8772583 L144.463167,37.3232521 C144.602695,37.6843839 144.844814,37.9552287 145.189531,38.1357946 C145.534247,38.3163605 145.940515,38.4066421 146.408344,38.4066421 C146.892589,38.4066421 147.261923,38.3204642 147.516357,38.1481058 C147.770791,37.9757475 147.898006,37.7582509 147.898006,37.4956096 C147.898006,37.2575909 147.778998,37.0667684 147.540979,36.9231365 C147.302961,36.7795045 146.884382,36.6543414 146.285232,36.5476433 C145.694289,36.4409453 145.226466,36.3116785 144.881749,36.159839 C144.537033,36.0079995 144.286706,35.8151251 144.130763,35.5812102 C143.97482,35.3472953 143.896849,35.0579838 143.896849,34.7132671 C143.896849,34.3767579 143.995338,34.0689797 144.192319,33.7899233 C144.3893,33.510867 144.672456,33.2872148 145.041796,33.1189602 C145.411135,32.9507056 145.837921,32.8665796 146.322166,32.8665796 C146.978769,32.8665796 147.506096,32.987639 147.904161,33.2297615 C148.302227,33.4718839 148.587435,33.8432696 148.759793,34.3439296 L147.922628,34.8363796 C147.791307,34.4424176 147.592278,34.1592617 147.325532,33.9869033 C147.058787,33.814545 146.724335,33.7283671 146.322166,33.7283671 C145.919996,33.7283671 145.579388,33.8186487 145.300332,33.9992146 C145.021275,34.1797805 144.881749,34.3890697 144.881749,34.6270883 C144.881749,34.8979372 145.002809,35.1072264 145.244931,35.2549621 C145.487054,35.4026978 145.919995,35.5299128 146.543768,35.6366108 C147.397352,35.776139 148.000598,35.9854282 148.353522,36.2644846 C148.706446,36.543541 148.882906,36.9374971 148.882906,37.4463646 C148.882906,37.7992889 148.778261,38.1132226 148.568969,38.3881752 C148.359676,38.6631278 148.060106,38.8785726 147.670247,39.0345158 C147.280389,39.1904591 146.826929,39.2684296 146.309854,39.2684296 Z M151.197421,31.8078121 C150.975817,31.8078121 150.797306,31.7401009 150.661881,31.6046765 C150.526457,31.469252 150.458746,31.2907407 150.458746,31.0691371 C150.458746,30.8475335 150.526457,30.6690221 150.661881,30.5335977 C150.797306,30.3981733 150.975817,30.3304621 151.197421,30.3304621 C151.419024,30.3304621 151.597536,30.3981733 151.73296,30.5335977 C151.868384,30.6690221 151.936096,30.8475335 151.936096,31.0691371 C151.936096,31.2907407 151.868384,31.469252 151.73296,31.6046765 C151.597536,31.7401009 151.419024,31.8078121 151.197421,31.8078121 Z M151.689871,39.1453171 L150.704971,39.1453171 L150.704971,32.9896921 L151.689871,32.9896921 L151.689871,39.1453171 Z M157.414602,38.3573971 C157.997337,38.3573971 158.452849,38.4887158 158.781151,38.7513571 C159.109452,39.0139984 159.273601,39.3710211 159.273601,39.8224358 C159.273601,40.2163978 159.138178,40.5631612 158.867329,40.8627365 C158.596481,41.1623117 158.229199,41.3921194 157.765472,41.5521665 C157.301746,41.7122135 156.790835,41.7922358 156.232722,41.7922358 C155.297062,41.7922358 154.591224,41.6424505 154.115187,41.3428752 C153.639149,41.0433 153.401134,40.6513958 153.401134,40.1671508 C153.401134,39.8880945 153.497572,39.6418719 153.690449,39.4284758 C153.883326,39.2150798 154.148015,39.0632425 154.484524,38.9729596 C154.230091,38.8498465 154.026957,38.6939055 153.875117,38.5051321 C153.723278,38.3163587 153.647359,38.0947584 153.647359,37.8403246 C153.647359,37.5366456 153.729434,37.2842675 153.893584,37.0831827 C154.057735,36.882098 154.283439,36.7323126 154.570703,36.6338221 C154.275232,36.4532562 154.05158,36.2172929 153.89974,35.9259252 C153.7479,35.6345575 153.671982,35.3083127 153.671982,34.9471808 C153.671982,34.5450113 153.778678,34.1859368 153.992074,33.8699465 C154.20547,33.5539561 154.505041,33.3077336 154.890796,33.1312715 C155.27655,32.9548093 155.711543,32.8665796 156.195788,32.8665796 C156.65541,32.8665796 157.073989,32.9486538 157.451536,33.1128046 C157.681347,32.2756354 158.25997,31.8570571 159.187422,31.8570571 L159.409024,32.7188446 C158.604685,32.7188446 158.116344,32.9445486 157.943986,33.3959633 C158.190212,33.5847368 158.381034,33.8104408 158.516459,34.0730821 C158.651883,34.3357234 158.719594,34.6270867 158.719594,34.9471808 C158.719594,35.3493504 158.612898,35.7084249 158.399502,36.0244152 C158.186106,36.3404056 157.886535,36.5866281 157.500781,36.7630902 C157.115026,36.9395524 156.680033,37.0277821 156.195788,37.0277821 C155.834656,37.0277821 155.518671,36.9908487 155.247822,36.9169808 C155.001596,36.9744336 154.825136,37.0647152 154.718438,37.1878283 C154.61174,37.3109415 154.558392,37.4791935 154.558392,37.6925896 C154.558392,37.9059857 154.632259,38.070134 154.779994,38.1850396 C154.92773,38.2999452 155.124708,38.3573971 155.370934,38.3573971 L157.414602,38.3573971 Z M156.195788,33.6668108 C155.768996,33.6668108 155.411973,33.7858184 155.124709,34.0238371 C154.837445,34.2618558 154.693816,34.569634 154.693816,34.9471808 C154.693816,35.3247277 154.837445,35.6325059 155.124709,35.8705246 C155.411973,36.1085433 155.768996,36.2275508 156.195788,36.2275508 C156.62258,36.2275508 156.979603,36.1085433 157.266867,35.8705246 C157.554131,35.6325059 157.697761,35.3247277 157.697761,34.9471808 C157.697761,34.569634 157.554131,34.2618558 157.266867,34.0238371 C156.979603,33.7858184 156.62258,33.6668108 156.195788,33.6668108 Z M156.343523,40.9673821 C156.967296,40.9673821 157.459741,40.8668412 157.820873,40.6657565 C158.182005,40.4646717 158.362568,40.220501 158.362568,39.9332371 C158.362568,39.6952184 158.270235,39.5146552 158.085565,39.3915421 C157.900895,39.268429 157.586962,39.2068733 157.143754,39.2068733 L155.494047,39.2068733 C155.1165,39.2068733 154.825137,39.2745845 154.619948,39.410009 C154.41476,39.5454334 154.312167,39.7321522 154.312167,39.9701708 C154.312167,40.2820574 154.484523,40.5262281 154.829239,40.7026902 C155.173956,40.8791524 155.678712,40.9673821 156.343523,40.9673821 Z M163.730273,32.8665796 C164.427914,32.8665796 165.002433,33.0676613 165.453848,33.4698308 C165.905263,33.8720004 166.130967,34.4506233 166.130967,35.2057171 L166.130967,39.1453171 L165.146067,39.1453171 L165.146067,35.5504321 C165.146067,34.9102439 165.008593,34.4465248 164.73364,34.1592608 C164.458687,33.8719969 164.091405,33.7283671 163.631783,33.7283671 C163.303481,33.7283671 162.995703,33.800182 162.708439,33.943814 C162.421175,34.0874459 162.185212,34.3213573 162.000542,34.6455552 C161.815873,34.9697531 161.723539,35.3780721 161.723539,35.8705246 L161.723539,39.1453171 L160.738639,39.1453171 L160.738639,32.9896921 L161.600427,32.9896921 L161.661983,33.9499696 C161.867172,33.5806302 162.150328,33.3077336 162.511459,33.1312715 C162.872591,32.9548093 163.278858,32.8665796 163.730273,32.8665796 Z" id="Content-Driven-Desig"></path>
            </g>
        </g>
    </g>
</svg>